M48
METRIC,TZ
T1C0.300
T2C0.400
T3C0.900
T4C1.000
T5C1.200
T6C1.300
T7C2.200
T8C3.000
T9C3.300
%
G90
G05
T1
X115580Y-122960
X115630Y-120010
X115860Y-141210
X119610Y-144680
X131800Y-151340
X135280Y-158250
X147500Y-158940
X153577Y-124033
X156000Y-139720
X161540Y-137360
X162110Y-117440
X170130Y-118370
X173090Y-101290
T2
X113676Y-137349
X113725Y-87615
X114795Y-104448
X119585Y-77061
X120636Y-153236
X121283Y-130275
X123335Y-54608
X123459Y-104074
X123775Y-56438
X124801Y-153821
X125371Y-130378
X126558Y-89482
X126719Y-139838
X128155Y-100918
X128285Y-84268
X128285Y-113563
X128815Y-103058
X130368Y-108620
X130376Y-121855
X130698Y-54709
X130834Y-118057
X131055Y-59698
X131520Y-156640
X132116Y-138720
X132777Y-156792
X133155Y-76398
X133165Y-106028
X134021Y-136561
X134216Y-53998
X134425Y-62328
X134568Y-121601
X134655Y-100938
X135359Y-74242
X135787Y-124699
X136130Y-121055
X136985Y-58233
X138064Y-69073
X138543Y-123607
X140995Y-88928
X141019Y-125817
X141145Y-76648
X141225Y-86978
X141245Y-83198
X141575Y-106148
X142085Y-67638
X142135Y-103288
X142255Y-78238
X142636Y-70343
X142835Y-91218
X144315Y-62788
X144727Y-156652
X145415Y-93688
X145455Y-66393
X145998Y-147928
X146575Y-102658
X146645Y-81568
X146852Y-74000
X147025Y-78238
X149875Y-109668
X149884Y-135431
X149893Y-110675
X150405Y-92578
X150658Y-131316
X151141Y-150252
X153491Y-167956
X155250Y-86318
X155975Y-88378
X156035Y-57508
X157224Y-127760
X158189Y-124953
X158805Y-78828
X159105Y-93288
X164336Y-130973
X166004Y-77150
X166215Y-93318
X166381Y-127570
X166737Y-119950
X168715Y-53778
X169366Y-134872
X169575Y-112468
X169874Y-148766
X170432Y-141629
X170826Y-120483
X176035Y-111398
T3
X122004Y-87388
X122004Y-89394
X122004Y-91401
X122004Y-93408
X122004Y-95414
T4
X120970Y-105217
X126050Y-105217
X147009Y-122134
X147009Y-126706
X155518Y-122134
X155518Y-126706
X158024Y-168273
X158024Y-170813
X159142Y-118324
X159142Y-122896
X167651Y-118324
X167651Y-122896
X168366Y-105217
X174077Y-137450
X176617Y-137450
T5
X110658Y-72910
X110658Y-81546
X110879Y-96570
X110892Y-86232
X114455Y-72910
X114455Y-81546
T6
X144866Y-164543
X147406Y-164543
X149946Y-169623
X152486Y-164543
X155026Y-164543
T7
X111820Y-145530
X111937Y-59527
X111940Y-102710
X131650Y-147690
X133600Y-141720
X139010Y-133850
X158310Y-148580
X160967Y-127157
X177217Y-140827
X177357Y-58517
X177360Y-102720
T8
X151200Y-124420
X163460Y-120610
T9
X166580Y-138040
M30
