%TF.GenerationSoftware,KiCad,Pcbnew,8.0.5*%
%TF.CreationDate,2024-11-18T11:08:29+00:00*%
%TF.ProjectId,gbc_retrozero_combined,6762635f-7265-4747-926f-7a65726f5f63,rev?*%
%TF.SameCoordinates,Original*%
%TF.FileFunction,Legend,Top*%
%TF.FilePolarity,Positive*%
%FSLAX46Y46*%
G04 Gerber Fmt 4.6, Leading zero omitted, Abs format (unit mm)*
G04 Created by KiCad (PCBNEW 8.0.5) date 2024-11-18 11:08:29*
%MOMM*%
%LPD*%
G01*
G04 APERTURE LIST*
%ADD10C,0.150000*%
%ADD11C,0.200000*%
%ADD12C,0.300000*%
%ADD13C,0.125000*%
%ADD14C,0.120000*%
G04 APERTURE END LIST*
D10*
X105240240Y-43410280D02*
X105240240Y-116735000D01*
X109548080Y-43410280D02*
X109548080Y-54586280D01*
D11*
X178890080Y-79795780D02*
X179652080Y-79795780D01*
X178890080Y-72747280D02*
X179652080Y-72747280D01*
X183766880Y-86310880D02*
X183335080Y-86310880D01*
X178890080Y-86844280D02*
X179652080Y-86844280D01*
X110310080Y-86463280D02*
X109548080Y-86463280D01*
X110310080Y-86463280D02*
X110310080Y-95988280D01*
X167460080Y-56364280D02*
X122756080Y-56364280D01*
X109548080Y-77192280D02*
X110310080Y-77192280D01*
D10*
X183340160Y-43405200D02*
X183340160Y-116729920D01*
D11*
X167460080Y-97004280D02*
X167460080Y-56364280D01*
X179652080Y-43410280D02*
X183360480Y-43410280D01*
X183766880Y-72417080D02*
X183766880Y-86310880D01*
D10*
X146964520Y-175907400D02*
X152964000Y-175907400D01*
D11*
X110310080Y-82399280D02*
X109548080Y-82399280D01*
X183360480Y-72417080D02*
X183766880Y-72417080D01*
D10*
X152964000Y-175892160D02*
X152969080Y-173545200D01*
X179652080Y-51919280D02*
X179652080Y-43410280D01*
D11*
X109548080Y-71985280D02*
X110310080Y-71985280D01*
X122756080Y-97004280D02*
X122756080Y-56364280D01*
X178890080Y-72747280D02*
X178890080Y-86844280D01*
D10*
X179652080Y-43410280D02*
X109548080Y-43410280D01*
D11*
X110310080Y-71985280D02*
X110310080Y-82399280D01*
D10*
X152964000Y-175841360D02*
X152964000Y-175836280D01*
D11*
X110310080Y-95988280D02*
X109548080Y-95988280D01*
D10*
X109548080Y-43410280D02*
X105242780Y-43410280D01*
D11*
X109548080Y-91225780D02*
X110310080Y-91225780D01*
X122756080Y-97004280D02*
X167460080Y-97004280D01*
D10*
X146964520Y-175902320D02*
X146969600Y-173555360D01*
D12*
X139350080Y-42612251D02*
X139278652Y-42683680D01*
X139278652Y-42683680D02*
X139064366Y-42755108D01*
X139064366Y-42755108D02*
X138921509Y-42755108D01*
X138921509Y-42755108D02*
X138707223Y-42683680D01*
X138707223Y-42683680D02*
X138564366Y-42540822D01*
X138564366Y-42540822D02*
X138492937Y-42397965D01*
X138492937Y-42397965D02*
X138421509Y-42112251D01*
X138421509Y-42112251D02*
X138421509Y-41897965D01*
X138421509Y-41897965D02*
X138492937Y-41612251D01*
X138492937Y-41612251D02*
X138564366Y-41469394D01*
X138564366Y-41469394D02*
X138707223Y-41326537D01*
X138707223Y-41326537D02*
X138921509Y-41255108D01*
X138921509Y-41255108D02*
X139064366Y-41255108D01*
X139064366Y-41255108D02*
X139278652Y-41326537D01*
X139278652Y-41326537D02*
X139350080Y-41397965D01*
X140635795Y-42755108D02*
X140635795Y-41969394D01*
X140635795Y-41969394D02*
X140564366Y-41826537D01*
X140564366Y-41826537D02*
X140421509Y-41755108D01*
X140421509Y-41755108D02*
X140135795Y-41755108D01*
X140135795Y-41755108D02*
X139992937Y-41826537D01*
X140635795Y-42683680D02*
X140492937Y-42755108D01*
X140492937Y-42755108D02*
X140135795Y-42755108D01*
X140135795Y-42755108D02*
X139992937Y-42683680D01*
X139992937Y-42683680D02*
X139921509Y-42540822D01*
X139921509Y-42540822D02*
X139921509Y-42397965D01*
X139921509Y-42397965D02*
X139992937Y-42255108D01*
X139992937Y-42255108D02*
X140135795Y-42183680D01*
X140135795Y-42183680D02*
X140492937Y-42183680D01*
X140492937Y-42183680D02*
X140635795Y-42112251D01*
X141278652Y-42683680D02*
X141421509Y-42755108D01*
X141421509Y-42755108D02*
X141707223Y-42755108D01*
X141707223Y-42755108D02*
X141850080Y-42683680D01*
X141850080Y-42683680D02*
X141921509Y-42540822D01*
X141921509Y-42540822D02*
X141921509Y-42469394D01*
X141921509Y-42469394D02*
X141850080Y-42326537D01*
X141850080Y-42326537D02*
X141707223Y-42255108D01*
X141707223Y-42255108D02*
X141492938Y-42255108D01*
X141492938Y-42255108D02*
X141350080Y-42183680D01*
X141350080Y-42183680D02*
X141278652Y-42040822D01*
X141278652Y-42040822D02*
X141278652Y-41969394D01*
X141278652Y-41969394D02*
X141350080Y-41826537D01*
X141350080Y-41826537D02*
X141492938Y-41755108D01*
X141492938Y-41755108D02*
X141707223Y-41755108D01*
X141707223Y-41755108D02*
X141850080Y-41826537D01*
X143135795Y-42683680D02*
X142992938Y-42755108D01*
X142992938Y-42755108D02*
X142707224Y-42755108D01*
X142707224Y-42755108D02*
X142564366Y-42683680D01*
X142564366Y-42683680D02*
X142492938Y-42540822D01*
X142492938Y-42540822D02*
X142492938Y-41969394D01*
X142492938Y-41969394D02*
X142564366Y-41826537D01*
X142564366Y-41826537D02*
X142707224Y-41755108D01*
X142707224Y-41755108D02*
X142992938Y-41755108D01*
X142992938Y-41755108D02*
X143135795Y-41826537D01*
X143135795Y-41826537D02*
X143207224Y-41969394D01*
X143207224Y-41969394D02*
X143207224Y-42112251D01*
X143207224Y-42112251D02*
X142492938Y-42255108D01*
X145564366Y-42683680D02*
X145421509Y-42755108D01*
X145421509Y-42755108D02*
X145135795Y-42755108D01*
X145135795Y-42755108D02*
X144992937Y-42683680D01*
X144992937Y-42683680D02*
X144921509Y-42540822D01*
X144921509Y-42540822D02*
X144921509Y-41969394D01*
X144921509Y-41969394D02*
X144992937Y-41826537D01*
X144992937Y-41826537D02*
X145135795Y-41755108D01*
X145135795Y-41755108D02*
X145421509Y-41755108D01*
X145421509Y-41755108D02*
X145564366Y-41826537D01*
X145564366Y-41826537D02*
X145635795Y-41969394D01*
X145635795Y-41969394D02*
X145635795Y-42112251D01*
X145635795Y-42112251D02*
X144921509Y-42255108D01*
X146921509Y-42755108D02*
X146921509Y-41255108D01*
X146921509Y-42683680D02*
X146778651Y-42755108D01*
X146778651Y-42755108D02*
X146492937Y-42755108D01*
X146492937Y-42755108D02*
X146350080Y-42683680D01*
X146350080Y-42683680D02*
X146278651Y-42612251D01*
X146278651Y-42612251D02*
X146207223Y-42469394D01*
X146207223Y-42469394D02*
X146207223Y-42040822D01*
X146207223Y-42040822D02*
X146278651Y-41897965D01*
X146278651Y-41897965D02*
X146350080Y-41826537D01*
X146350080Y-41826537D02*
X146492937Y-41755108D01*
X146492937Y-41755108D02*
X146778651Y-41755108D01*
X146778651Y-41755108D02*
X146921509Y-41826537D01*
X148278652Y-41755108D02*
X148278652Y-42969394D01*
X148278652Y-42969394D02*
X148207223Y-43112251D01*
X148207223Y-43112251D02*
X148135794Y-43183680D01*
X148135794Y-43183680D02*
X147992937Y-43255108D01*
X147992937Y-43255108D02*
X147778652Y-43255108D01*
X147778652Y-43255108D02*
X147635794Y-43183680D01*
X148278652Y-42683680D02*
X148135794Y-42755108D01*
X148135794Y-42755108D02*
X147850080Y-42755108D01*
X147850080Y-42755108D02*
X147707223Y-42683680D01*
X147707223Y-42683680D02*
X147635794Y-42612251D01*
X147635794Y-42612251D02*
X147564366Y-42469394D01*
X147564366Y-42469394D02*
X147564366Y-42040822D01*
X147564366Y-42040822D02*
X147635794Y-41897965D01*
X147635794Y-41897965D02*
X147707223Y-41826537D01*
X147707223Y-41826537D02*
X147850080Y-41755108D01*
X147850080Y-41755108D02*
X148135794Y-41755108D01*
X148135794Y-41755108D02*
X148278652Y-41826537D01*
X149564366Y-42683680D02*
X149421509Y-42755108D01*
X149421509Y-42755108D02*
X149135795Y-42755108D01*
X149135795Y-42755108D02*
X148992937Y-42683680D01*
X148992937Y-42683680D02*
X148921509Y-42540822D01*
X148921509Y-42540822D02*
X148921509Y-41969394D01*
X148921509Y-41969394D02*
X148992937Y-41826537D01*
X148992937Y-41826537D02*
X149135795Y-41755108D01*
X149135795Y-41755108D02*
X149421509Y-41755108D01*
X149421509Y-41755108D02*
X149564366Y-41826537D01*
X149564366Y-41826537D02*
X149635795Y-41969394D01*
X149635795Y-41969394D02*
X149635795Y-42112251D01*
X149635795Y-42112251D02*
X148921509Y-42255108D01*
X171442571Y-129384980D02*
X172585429Y-129384980D01*
X172014000Y-129956408D02*
X172014000Y-128813551D01*
X182108408Y-86640994D02*
X180608408Y-86640994D01*
X180608408Y-86640994D02*
X180608408Y-86069565D01*
X180608408Y-86069565D02*
X180679837Y-85926708D01*
X180679837Y-85926708D02*
X180751265Y-85855279D01*
X180751265Y-85855279D02*
X180894122Y-85783851D01*
X180894122Y-85783851D02*
X181108408Y-85783851D01*
X181108408Y-85783851D02*
X181251265Y-85855279D01*
X181251265Y-85855279D02*
X181322694Y-85926708D01*
X181322694Y-85926708D02*
X181394122Y-86069565D01*
X181394122Y-86069565D02*
X181394122Y-86640994D01*
X182108408Y-84926708D02*
X182036980Y-85069565D01*
X182036980Y-85069565D02*
X181965551Y-85140994D01*
X181965551Y-85140994D02*
X181822694Y-85212422D01*
X181822694Y-85212422D02*
X181394122Y-85212422D01*
X181394122Y-85212422D02*
X181251265Y-85140994D01*
X181251265Y-85140994D02*
X181179837Y-85069565D01*
X181179837Y-85069565D02*
X181108408Y-84926708D01*
X181108408Y-84926708D02*
X181108408Y-84712422D01*
X181108408Y-84712422D02*
X181179837Y-84569565D01*
X181179837Y-84569565D02*
X181251265Y-84498137D01*
X181251265Y-84498137D02*
X181394122Y-84426708D01*
X181394122Y-84426708D02*
X181822694Y-84426708D01*
X181822694Y-84426708D02*
X181965551Y-84498137D01*
X181965551Y-84498137D02*
X182036980Y-84569565D01*
X182036980Y-84569565D02*
X182108408Y-84712422D01*
X182108408Y-84712422D02*
X182108408Y-84926708D01*
X181108408Y-83926708D02*
X182108408Y-83640994D01*
X182108408Y-83640994D02*
X181394122Y-83355279D01*
X181394122Y-83355279D02*
X182108408Y-83069565D01*
X182108408Y-83069565D02*
X181108408Y-82783851D01*
X182036980Y-81640993D02*
X182108408Y-81783850D01*
X182108408Y-81783850D02*
X182108408Y-82069565D01*
X182108408Y-82069565D02*
X182036980Y-82212422D01*
X182036980Y-82212422D02*
X181894122Y-82283850D01*
X181894122Y-82283850D02*
X181322694Y-82283850D01*
X181322694Y-82283850D02*
X181179837Y-82212422D01*
X181179837Y-82212422D02*
X181108408Y-82069565D01*
X181108408Y-82069565D02*
X181108408Y-81783850D01*
X181108408Y-81783850D02*
X181179837Y-81640993D01*
X181179837Y-81640993D02*
X181322694Y-81569565D01*
X181322694Y-81569565D02*
X181465551Y-81569565D01*
X181465551Y-81569565D02*
X181608408Y-82283850D01*
X182108408Y-80926708D02*
X181108408Y-80926708D01*
X181394122Y-80926708D02*
X181251265Y-80855279D01*
X181251265Y-80855279D02*
X181179837Y-80783851D01*
X181179837Y-80783851D02*
X181108408Y-80640993D01*
X181108408Y-80640993D02*
X181108408Y-80498136D01*
X182036980Y-78926708D02*
X182108408Y-78783851D01*
X182108408Y-78783851D02*
X182108408Y-78498137D01*
X182108408Y-78498137D02*
X182036980Y-78355280D01*
X182036980Y-78355280D02*
X181894122Y-78283851D01*
X181894122Y-78283851D02*
X181822694Y-78283851D01*
X181822694Y-78283851D02*
X181679837Y-78355280D01*
X181679837Y-78355280D02*
X181608408Y-78498137D01*
X181608408Y-78498137D02*
X181608408Y-78712423D01*
X181608408Y-78712423D02*
X181536980Y-78855280D01*
X181536980Y-78855280D02*
X181394122Y-78926708D01*
X181394122Y-78926708D02*
X181322694Y-78926708D01*
X181322694Y-78926708D02*
X181179837Y-78855280D01*
X181179837Y-78855280D02*
X181108408Y-78712423D01*
X181108408Y-78712423D02*
X181108408Y-78498137D01*
X181108408Y-78498137D02*
X181179837Y-78355280D01*
X181108408Y-77783851D02*
X182108408Y-77498137D01*
X182108408Y-77498137D02*
X181394122Y-77212422D01*
X181394122Y-77212422D02*
X182108408Y-76926708D01*
X182108408Y-76926708D02*
X181108408Y-76640994D01*
X182108408Y-76069565D02*
X181108408Y-76069565D01*
X180608408Y-76069565D02*
X180679837Y-76140993D01*
X180679837Y-76140993D02*
X180751265Y-76069565D01*
X180751265Y-76069565D02*
X180679837Y-75998136D01*
X180679837Y-75998136D02*
X180608408Y-76069565D01*
X180608408Y-76069565D02*
X180751265Y-76069565D01*
X181108408Y-75569564D02*
X181108408Y-74998136D01*
X180608408Y-75355279D02*
X181894122Y-75355279D01*
X181894122Y-75355279D02*
X182036980Y-75283850D01*
X182036980Y-75283850D02*
X182108408Y-75140993D01*
X182108408Y-75140993D02*
X182108408Y-74998136D01*
X182036980Y-73855279D02*
X182108408Y-73998136D01*
X182108408Y-73998136D02*
X182108408Y-74283850D01*
X182108408Y-74283850D02*
X182036980Y-74426707D01*
X182036980Y-74426707D02*
X181965551Y-74498136D01*
X181965551Y-74498136D02*
X181822694Y-74569564D01*
X181822694Y-74569564D02*
X181394122Y-74569564D01*
X181394122Y-74569564D02*
X181251265Y-74498136D01*
X181251265Y-74498136D02*
X181179837Y-74426707D01*
X181179837Y-74426707D02*
X181108408Y-74283850D01*
X181108408Y-74283850D02*
X181108408Y-73998136D01*
X181108408Y-73998136D02*
X181179837Y-73855279D01*
X182108408Y-73212422D02*
X180608408Y-73212422D01*
X182108408Y-72569565D02*
X181322694Y-72569565D01*
X181322694Y-72569565D02*
X181179837Y-72640993D01*
X181179837Y-72640993D02*
X181108408Y-72783850D01*
X181108408Y-72783850D02*
X181108408Y-72998136D01*
X181108408Y-72998136D02*
X181179837Y-73140993D01*
X181179837Y-73140993D02*
X181251265Y-73212422D01*
X149852571Y-154149980D02*
X150995429Y-154149980D01*
X150424000Y-154721408D02*
X150424000Y-153578551D01*
X157345571Y-134083980D02*
X158488429Y-134083980D01*
X157917000Y-134655408D02*
X157917000Y-133512551D01*
X121658571Y-124050980D02*
X122801429Y-124050980D01*
X122230000Y-124622408D02*
X122230000Y-123479551D01*
X129151571Y-131797980D02*
X130294429Y-131797980D01*
X129723000Y-132369408D02*
X129723000Y-131226551D01*
X121658571Y-139417980D02*
X122801429Y-139417980D01*
X122230000Y-139989408D02*
X122230000Y-138846551D01*
X113911571Y-131797980D02*
X115054429Y-131797980D01*
X114483000Y-132369408D02*
X114483000Y-131226551D01*
X108559551Y-81065280D02*
X108630980Y-81136708D01*
X108630980Y-81136708D02*
X108702408Y-81350994D01*
X108702408Y-81350994D02*
X108702408Y-81493851D01*
X108702408Y-81493851D02*
X108630980Y-81708137D01*
X108630980Y-81708137D02*
X108488122Y-81850994D01*
X108488122Y-81850994D02*
X108345265Y-81922423D01*
X108345265Y-81922423D02*
X108059551Y-81993851D01*
X108059551Y-81993851D02*
X107845265Y-81993851D01*
X107845265Y-81993851D02*
X107559551Y-81922423D01*
X107559551Y-81922423D02*
X107416694Y-81850994D01*
X107416694Y-81850994D02*
X107273837Y-81708137D01*
X107273837Y-81708137D02*
X107202408Y-81493851D01*
X107202408Y-81493851D02*
X107202408Y-81350994D01*
X107202408Y-81350994D02*
X107273837Y-81136708D01*
X107273837Y-81136708D02*
X107345265Y-81065280D01*
X107202408Y-80136708D02*
X107202408Y-79850994D01*
X107202408Y-79850994D02*
X107273837Y-79708137D01*
X107273837Y-79708137D02*
X107416694Y-79565280D01*
X107416694Y-79565280D02*
X107702408Y-79493851D01*
X107702408Y-79493851D02*
X108202408Y-79493851D01*
X108202408Y-79493851D02*
X108488122Y-79565280D01*
X108488122Y-79565280D02*
X108630980Y-79708137D01*
X108630980Y-79708137D02*
X108702408Y-79850994D01*
X108702408Y-79850994D02*
X108702408Y-80136708D01*
X108702408Y-80136708D02*
X108630980Y-80279566D01*
X108630980Y-80279566D02*
X108488122Y-80422423D01*
X108488122Y-80422423D02*
X108202408Y-80493851D01*
X108202408Y-80493851D02*
X107702408Y-80493851D01*
X107702408Y-80493851D02*
X107416694Y-80422423D01*
X107416694Y-80422423D02*
X107273837Y-80279566D01*
X107273837Y-80279566D02*
X107202408Y-80136708D01*
X108702408Y-78850994D02*
X107202408Y-78850994D01*
X107202408Y-78850994D02*
X108273837Y-78350994D01*
X108273837Y-78350994D02*
X107202408Y-77850994D01*
X107202408Y-77850994D02*
X108702408Y-77850994D01*
X107702408Y-75993851D02*
X109202408Y-75993851D01*
X107773837Y-75993851D02*
X107702408Y-75850994D01*
X107702408Y-75850994D02*
X107702408Y-75565279D01*
X107702408Y-75565279D02*
X107773837Y-75422422D01*
X107773837Y-75422422D02*
X107845265Y-75350994D01*
X107845265Y-75350994D02*
X107988122Y-75279565D01*
X107988122Y-75279565D02*
X108416694Y-75279565D01*
X108416694Y-75279565D02*
X108559551Y-75350994D01*
X108559551Y-75350994D02*
X108630980Y-75422422D01*
X108630980Y-75422422D02*
X108702408Y-75565279D01*
X108702408Y-75565279D02*
X108702408Y-75850994D01*
X108702408Y-75850994D02*
X108630980Y-75993851D01*
X108702408Y-74422422D02*
X108630980Y-74565279D01*
X108630980Y-74565279D02*
X108559551Y-74636708D01*
X108559551Y-74636708D02*
X108416694Y-74708136D01*
X108416694Y-74708136D02*
X107988122Y-74708136D01*
X107988122Y-74708136D02*
X107845265Y-74636708D01*
X107845265Y-74636708D02*
X107773837Y-74565279D01*
X107773837Y-74565279D02*
X107702408Y-74422422D01*
X107702408Y-74422422D02*
X107702408Y-74208136D01*
X107702408Y-74208136D02*
X107773837Y-74065279D01*
X107773837Y-74065279D02*
X107845265Y-73993851D01*
X107845265Y-73993851D02*
X107988122Y-73922422D01*
X107988122Y-73922422D02*
X108416694Y-73922422D01*
X108416694Y-73922422D02*
X108559551Y-73993851D01*
X108559551Y-73993851D02*
X108630980Y-74065279D01*
X108630980Y-74065279D02*
X108702408Y-74208136D01*
X108702408Y-74208136D02*
X108702408Y-74422422D01*
X108702408Y-73279565D02*
X107702408Y-73279565D01*
X107988122Y-73279565D02*
X107845265Y-73208136D01*
X107845265Y-73208136D02*
X107773837Y-73136708D01*
X107773837Y-73136708D02*
X107702408Y-72993850D01*
X107702408Y-72993850D02*
X107702408Y-72850993D01*
X107702408Y-72565279D02*
X107702408Y-71993851D01*
X107202408Y-72350994D02*
X108488122Y-72350994D01*
X108488122Y-72350994D02*
X108630980Y-72279565D01*
X108630980Y-72279565D02*
X108702408Y-72136708D01*
X108702408Y-72136708D02*
X108702408Y-71993851D01*
X138422571Y-154149980D02*
X139565429Y-154149980D01*
X138994000Y-154721408D02*
X138994000Y-153578551D01*
X107202408Y-96701993D02*
X108702408Y-96201993D01*
X108702408Y-96201993D02*
X107202408Y-95701993D01*
X108702408Y-94987708D02*
X108630980Y-95130565D01*
X108630980Y-95130565D02*
X108559551Y-95201994D01*
X108559551Y-95201994D02*
X108416694Y-95273422D01*
X108416694Y-95273422D02*
X107988122Y-95273422D01*
X107988122Y-95273422D02*
X107845265Y-95201994D01*
X107845265Y-95201994D02*
X107773837Y-95130565D01*
X107773837Y-95130565D02*
X107702408Y-94987708D01*
X107702408Y-94987708D02*
X107702408Y-94773422D01*
X107702408Y-94773422D02*
X107773837Y-94630565D01*
X107773837Y-94630565D02*
X107845265Y-94559137D01*
X107845265Y-94559137D02*
X107988122Y-94487708D01*
X107988122Y-94487708D02*
X108416694Y-94487708D01*
X108416694Y-94487708D02*
X108559551Y-94559137D01*
X108559551Y-94559137D02*
X108630980Y-94630565D01*
X108630980Y-94630565D02*
X108702408Y-94773422D01*
X108702408Y-94773422D02*
X108702408Y-94987708D01*
X108702408Y-93630565D02*
X108630980Y-93773422D01*
X108630980Y-93773422D02*
X108488122Y-93844851D01*
X108488122Y-93844851D02*
X107202408Y-93844851D01*
X107702408Y-92059137D02*
X108702408Y-91773423D01*
X108702408Y-91773423D02*
X107988122Y-91487708D01*
X107988122Y-91487708D02*
X108702408Y-91201994D01*
X108702408Y-91201994D02*
X107702408Y-90916280D01*
X108702408Y-90344851D02*
X107202408Y-90344851D01*
X108702408Y-89701994D02*
X107916694Y-89701994D01*
X107916694Y-89701994D02*
X107773837Y-89773422D01*
X107773837Y-89773422D02*
X107702408Y-89916279D01*
X107702408Y-89916279D02*
X107702408Y-90130565D01*
X107702408Y-90130565D02*
X107773837Y-90273422D01*
X107773837Y-90273422D02*
X107845265Y-90344851D01*
X108630980Y-88416279D02*
X108702408Y-88559136D01*
X108702408Y-88559136D02*
X108702408Y-88844851D01*
X108702408Y-88844851D02*
X108630980Y-88987708D01*
X108630980Y-88987708D02*
X108488122Y-89059136D01*
X108488122Y-89059136D02*
X107916694Y-89059136D01*
X107916694Y-89059136D02*
X107773837Y-88987708D01*
X107773837Y-88987708D02*
X107702408Y-88844851D01*
X107702408Y-88844851D02*
X107702408Y-88559136D01*
X107702408Y-88559136D02*
X107773837Y-88416279D01*
X107773837Y-88416279D02*
X107916694Y-88344851D01*
X107916694Y-88344851D02*
X108059551Y-88344851D01*
X108059551Y-88344851D02*
X108202408Y-89059136D01*
X108630980Y-87130565D02*
X108702408Y-87273422D01*
X108702408Y-87273422D02*
X108702408Y-87559137D01*
X108702408Y-87559137D02*
X108630980Y-87701994D01*
X108630980Y-87701994D02*
X108488122Y-87773422D01*
X108488122Y-87773422D02*
X107916694Y-87773422D01*
X107916694Y-87773422D02*
X107773837Y-87701994D01*
X107773837Y-87701994D02*
X107702408Y-87559137D01*
X107702408Y-87559137D02*
X107702408Y-87273422D01*
X107702408Y-87273422D02*
X107773837Y-87130565D01*
X107773837Y-87130565D02*
X107916694Y-87059137D01*
X107916694Y-87059137D02*
X108059551Y-87059137D01*
X108059551Y-87059137D02*
X108202408Y-87773422D01*
X108702408Y-86201994D02*
X108630980Y-86344851D01*
X108630980Y-86344851D02*
X108488122Y-86416280D01*
X108488122Y-86416280D02*
X107202408Y-86416280D01*
X113068401Y-166405337D02*
X112925544Y-166333908D01*
X112925544Y-166333908D02*
X112711258Y-166333908D01*
X112711258Y-166333908D02*
X112496972Y-166405337D01*
X112496972Y-166405337D02*
X112354115Y-166548194D01*
X112354115Y-166548194D02*
X112282686Y-166691051D01*
X112282686Y-166691051D02*
X112211258Y-166976765D01*
X112211258Y-166976765D02*
X112211258Y-167191051D01*
X112211258Y-167191051D02*
X112282686Y-167476765D01*
X112282686Y-167476765D02*
X112354115Y-167619622D01*
X112354115Y-167619622D02*
X112496972Y-167762480D01*
X112496972Y-167762480D02*
X112711258Y-167833908D01*
X112711258Y-167833908D02*
X112854115Y-167833908D01*
X112854115Y-167833908D02*
X113068401Y-167762480D01*
X113068401Y-167762480D02*
X113139829Y-167691051D01*
X113139829Y-167691051D02*
X113139829Y-167191051D01*
X113139829Y-167191051D02*
X112854115Y-167191051D01*
X114282686Y-167048194D02*
X114496972Y-167119622D01*
X114496972Y-167119622D02*
X114568401Y-167191051D01*
X114568401Y-167191051D02*
X114639829Y-167333908D01*
X114639829Y-167333908D02*
X114639829Y-167548194D01*
X114639829Y-167548194D02*
X114568401Y-167691051D01*
X114568401Y-167691051D02*
X114496972Y-167762480D01*
X114496972Y-167762480D02*
X114354115Y-167833908D01*
X114354115Y-167833908D02*
X113782686Y-167833908D01*
X113782686Y-167833908D02*
X113782686Y-166333908D01*
X113782686Y-166333908D02*
X114282686Y-166333908D01*
X114282686Y-166333908D02*
X114425544Y-166405337D01*
X114425544Y-166405337D02*
X114496972Y-166476765D01*
X114496972Y-166476765D02*
X114568401Y-166619622D01*
X114568401Y-166619622D02*
X114568401Y-166762480D01*
X114568401Y-166762480D02*
X114496972Y-166905337D01*
X114496972Y-166905337D02*
X114425544Y-166976765D01*
X114425544Y-166976765D02*
X114282686Y-167048194D01*
X114282686Y-167048194D02*
X113782686Y-167048194D01*
X116139829Y-167691051D02*
X116068401Y-167762480D01*
X116068401Y-167762480D02*
X115854115Y-167833908D01*
X115854115Y-167833908D02*
X115711258Y-167833908D01*
X115711258Y-167833908D02*
X115496972Y-167762480D01*
X115496972Y-167762480D02*
X115354115Y-167619622D01*
X115354115Y-167619622D02*
X115282686Y-167476765D01*
X115282686Y-167476765D02*
X115211258Y-167191051D01*
X115211258Y-167191051D02*
X115211258Y-166976765D01*
X115211258Y-166976765D02*
X115282686Y-166691051D01*
X115282686Y-166691051D02*
X115354115Y-166548194D01*
X115354115Y-166548194D02*
X115496972Y-166405337D01*
X115496972Y-166405337D02*
X115711258Y-166333908D01*
X115711258Y-166333908D02*
X115854115Y-166333908D01*
X115854115Y-166333908D02*
X116068401Y-166405337D01*
X116068401Y-166405337D02*
X116139829Y-166476765D01*
X116425544Y-167976765D02*
X117568401Y-167976765D01*
X118782686Y-167833908D02*
X118282686Y-167119622D01*
X117925543Y-167833908D02*
X117925543Y-166333908D01*
X117925543Y-166333908D02*
X118496972Y-166333908D01*
X118496972Y-166333908D02*
X118639829Y-166405337D01*
X118639829Y-166405337D02*
X118711258Y-166476765D01*
X118711258Y-166476765D02*
X118782686Y-166619622D01*
X118782686Y-166619622D02*
X118782686Y-166833908D01*
X118782686Y-166833908D02*
X118711258Y-166976765D01*
X118711258Y-166976765D02*
X118639829Y-167048194D01*
X118639829Y-167048194D02*
X118496972Y-167119622D01*
X118496972Y-167119622D02*
X117925543Y-167119622D01*
X119996972Y-167762480D02*
X119854115Y-167833908D01*
X119854115Y-167833908D02*
X119568401Y-167833908D01*
X119568401Y-167833908D02*
X119425543Y-167762480D01*
X119425543Y-167762480D02*
X119354115Y-167619622D01*
X119354115Y-167619622D02*
X119354115Y-167048194D01*
X119354115Y-167048194D02*
X119425543Y-166905337D01*
X119425543Y-166905337D02*
X119568401Y-166833908D01*
X119568401Y-166833908D02*
X119854115Y-166833908D01*
X119854115Y-166833908D02*
X119996972Y-166905337D01*
X119996972Y-166905337D02*
X120068401Y-167048194D01*
X120068401Y-167048194D02*
X120068401Y-167191051D01*
X120068401Y-167191051D02*
X119354115Y-167333908D01*
X120496972Y-166833908D02*
X121068400Y-166833908D01*
X120711257Y-166333908D02*
X120711257Y-167619622D01*
X120711257Y-167619622D02*
X120782686Y-167762480D01*
X120782686Y-167762480D02*
X120925543Y-167833908D01*
X120925543Y-167833908D02*
X121068400Y-167833908D01*
X121568400Y-167833908D02*
X121568400Y-166833908D01*
X121568400Y-167119622D02*
X121639829Y-166976765D01*
X121639829Y-166976765D02*
X121711258Y-166905337D01*
X121711258Y-166905337D02*
X121854115Y-166833908D01*
X121854115Y-166833908D02*
X121996972Y-166833908D01*
X122711257Y-167833908D02*
X122568400Y-167762480D01*
X122568400Y-167762480D02*
X122496971Y-167691051D01*
X122496971Y-167691051D02*
X122425543Y-167548194D01*
X122425543Y-167548194D02*
X122425543Y-167119622D01*
X122425543Y-167119622D02*
X122496971Y-166976765D01*
X122496971Y-166976765D02*
X122568400Y-166905337D01*
X122568400Y-166905337D02*
X122711257Y-166833908D01*
X122711257Y-166833908D02*
X122925543Y-166833908D01*
X122925543Y-166833908D02*
X123068400Y-166905337D01*
X123068400Y-166905337D02*
X123139829Y-166976765D01*
X123139829Y-166976765D02*
X123211257Y-167119622D01*
X123211257Y-167119622D02*
X123211257Y-167548194D01*
X123211257Y-167548194D02*
X123139829Y-167691051D01*
X123139829Y-167691051D02*
X123068400Y-167762480D01*
X123068400Y-167762480D02*
X122925543Y-167833908D01*
X122925543Y-167833908D02*
X122711257Y-167833908D01*
X123854114Y-167833908D02*
X123854114Y-166333908D01*
X123854114Y-166333908D02*
X124425543Y-166333908D01*
X124425543Y-166333908D02*
X124568400Y-166405337D01*
X124568400Y-166405337D02*
X124639829Y-166476765D01*
X124639829Y-166476765D02*
X124711257Y-166619622D01*
X124711257Y-166619622D02*
X124711257Y-166833908D01*
X124711257Y-166833908D02*
X124639829Y-166976765D01*
X124639829Y-166976765D02*
X124568400Y-167048194D01*
X124568400Y-167048194D02*
X124425543Y-167119622D01*
X124425543Y-167119622D02*
X123854114Y-167119622D01*
X125354114Y-167833908D02*
X125354114Y-166833908D01*
X125354114Y-166333908D02*
X125282686Y-166405337D01*
X125282686Y-166405337D02*
X125354114Y-166476765D01*
X125354114Y-166476765D02*
X125425543Y-166405337D01*
X125425543Y-166405337D02*
X125354114Y-166333908D01*
X125354114Y-166333908D02*
X125354114Y-166476765D01*
X126639829Y-167762480D02*
X126496972Y-167833908D01*
X126496972Y-167833908D02*
X126211258Y-167833908D01*
X126211258Y-167833908D02*
X126068400Y-167762480D01*
X126068400Y-167762480D02*
X125996972Y-167619622D01*
X125996972Y-167619622D02*
X125996972Y-167048194D01*
X125996972Y-167048194D02*
X126068400Y-166905337D01*
X126068400Y-166905337D02*
X126211258Y-166833908D01*
X126211258Y-166833908D02*
X126496972Y-166833908D01*
X126496972Y-166833908D02*
X126639829Y-166905337D01*
X126639829Y-166905337D02*
X126711258Y-167048194D01*
X126711258Y-167048194D02*
X126711258Y-167191051D01*
X126711258Y-167191051D02*
X125996972Y-167333908D01*
X126996972Y-167976765D02*
X128139829Y-167976765D01*
X129354114Y-167691051D02*
X129282686Y-167762480D01*
X129282686Y-167762480D02*
X129068400Y-167833908D01*
X129068400Y-167833908D02*
X128925543Y-167833908D01*
X128925543Y-167833908D02*
X128711257Y-167762480D01*
X128711257Y-167762480D02*
X128568400Y-167619622D01*
X128568400Y-167619622D02*
X128496971Y-167476765D01*
X128496971Y-167476765D02*
X128425543Y-167191051D01*
X128425543Y-167191051D02*
X128425543Y-166976765D01*
X128425543Y-166976765D02*
X128496971Y-166691051D01*
X128496971Y-166691051D02*
X128568400Y-166548194D01*
X128568400Y-166548194D02*
X128711257Y-166405337D01*
X128711257Y-166405337D02*
X128925543Y-166333908D01*
X128925543Y-166333908D02*
X129068400Y-166333908D01*
X129068400Y-166333908D02*
X129282686Y-166405337D01*
X129282686Y-166405337D02*
X129354114Y-166476765D01*
X130211257Y-167833908D02*
X130068400Y-167762480D01*
X130068400Y-167762480D02*
X129996971Y-167691051D01*
X129996971Y-167691051D02*
X129925543Y-167548194D01*
X129925543Y-167548194D02*
X129925543Y-167119622D01*
X129925543Y-167119622D02*
X129996971Y-166976765D01*
X129996971Y-166976765D02*
X130068400Y-166905337D01*
X130068400Y-166905337D02*
X130211257Y-166833908D01*
X130211257Y-166833908D02*
X130425543Y-166833908D01*
X130425543Y-166833908D02*
X130568400Y-166905337D01*
X130568400Y-166905337D02*
X130639829Y-166976765D01*
X130639829Y-166976765D02*
X130711257Y-167119622D01*
X130711257Y-167119622D02*
X130711257Y-167548194D01*
X130711257Y-167548194D02*
X130639829Y-167691051D01*
X130639829Y-167691051D02*
X130568400Y-167762480D01*
X130568400Y-167762480D02*
X130425543Y-167833908D01*
X130425543Y-167833908D02*
X130211257Y-167833908D01*
X131354114Y-167833908D02*
X131354114Y-166833908D01*
X131354114Y-166976765D02*
X131425543Y-166905337D01*
X131425543Y-166905337D02*
X131568400Y-166833908D01*
X131568400Y-166833908D02*
X131782686Y-166833908D01*
X131782686Y-166833908D02*
X131925543Y-166905337D01*
X131925543Y-166905337D02*
X131996972Y-167048194D01*
X131996972Y-167048194D02*
X131996972Y-167833908D01*
X131996972Y-167048194D02*
X132068400Y-166905337D01*
X132068400Y-166905337D02*
X132211257Y-166833908D01*
X132211257Y-166833908D02*
X132425543Y-166833908D01*
X132425543Y-166833908D02*
X132568400Y-166905337D01*
X132568400Y-166905337D02*
X132639829Y-167048194D01*
X132639829Y-167048194D02*
X132639829Y-167833908D01*
X133354114Y-167833908D02*
X133354114Y-166333908D01*
X133354114Y-166905337D02*
X133496972Y-166833908D01*
X133496972Y-166833908D02*
X133782686Y-166833908D01*
X133782686Y-166833908D02*
X133925543Y-166905337D01*
X133925543Y-166905337D02*
X133996972Y-166976765D01*
X133996972Y-166976765D02*
X134068400Y-167119622D01*
X134068400Y-167119622D02*
X134068400Y-167548194D01*
X134068400Y-167548194D02*
X133996972Y-167691051D01*
X133996972Y-167691051D02*
X133925543Y-167762480D01*
X133925543Y-167762480D02*
X133782686Y-167833908D01*
X133782686Y-167833908D02*
X133496972Y-167833908D01*
X133496972Y-167833908D02*
X133354114Y-167762480D01*
X134711257Y-167833908D02*
X134711257Y-166833908D01*
X134711257Y-166333908D02*
X134639829Y-166405337D01*
X134639829Y-166405337D02*
X134711257Y-166476765D01*
X134711257Y-166476765D02*
X134782686Y-166405337D01*
X134782686Y-166405337D02*
X134711257Y-166333908D01*
X134711257Y-166333908D02*
X134711257Y-166476765D01*
X135425543Y-166833908D02*
X135425543Y-167833908D01*
X135425543Y-166976765D02*
X135496972Y-166905337D01*
X135496972Y-166905337D02*
X135639829Y-166833908D01*
X135639829Y-166833908D02*
X135854115Y-166833908D01*
X135854115Y-166833908D02*
X135996972Y-166905337D01*
X135996972Y-166905337D02*
X136068401Y-167048194D01*
X136068401Y-167048194D02*
X136068401Y-167833908D01*
X137354115Y-167762480D02*
X137211258Y-167833908D01*
X137211258Y-167833908D02*
X136925544Y-167833908D01*
X136925544Y-167833908D02*
X136782686Y-167762480D01*
X136782686Y-167762480D02*
X136711258Y-167619622D01*
X136711258Y-167619622D02*
X136711258Y-167048194D01*
X136711258Y-167048194D02*
X136782686Y-166905337D01*
X136782686Y-166905337D02*
X136925544Y-166833908D01*
X136925544Y-166833908D02*
X137211258Y-166833908D01*
X137211258Y-166833908D02*
X137354115Y-166905337D01*
X137354115Y-166905337D02*
X137425544Y-167048194D01*
X137425544Y-167048194D02*
X137425544Y-167191051D01*
X137425544Y-167191051D02*
X136711258Y-167333908D01*
X138711258Y-167833908D02*
X138711258Y-166333908D01*
X138711258Y-167762480D02*
X138568400Y-167833908D01*
X138568400Y-167833908D02*
X138282686Y-167833908D01*
X138282686Y-167833908D02*
X138139829Y-167762480D01*
X138139829Y-167762480D02*
X138068400Y-167691051D01*
X138068400Y-167691051D02*
X137996972Y-167548194D01*
X137996972Y-167548194D02*
X137996972Y-167119622D01*
X137996972Y-167119622D02*
X138068400Y-166976765D01*
X138068400Y-166976765D02*
X138139829Y-166905337D01*
X138139829Y-166905337D02*
X138282686Y-166833908D01*
X138282686Y-166833908D02*
X138568400Y-166833908D01*
X138568400Y-166833908D02*
X138711258Y-166905337D01*
X139068401Y-167976765D02*
X140211258Y-167976765D01*
X140568400Y-167833908D02*
X140568400Y-166833908D01*
X140568400Y-167119622D02*
X140639829Y-166976765D01*
X140639829Y-166976765D02*
X140711258Y-166905337D01*
X140711258Y-166905337D02*
X140854115Y-166833908D01*
X140854115Y-166833908D02*
X140996972Y-166833908D01*
X142068400Y-167762480D02*
X141925543Y-167833908D01*
X141925543Y-167833908D02*
X141639829Y-167833908D01*
X141639829Y-167833908D02*
X141496971Y-167762480D01*
X141496971Y-167762480D02*
X141425543Y-167619622D01*
X141425543Y-167619622D02*
X141425543Y-167048194D01*
X141425543Y-167048194D02*
X141496971Y-166905337D01*
X141496971Y-166905337D02*
X141639829Y-166833908D01*
X141639829Y-166833908D02*
X141925543Y-166833908D01*
X141925543Y-166833908D02*
X142068400Y-166905337D01*
X142068400Y-166905337D02*
X142139829Y-167048194D01*
X142139829Y-167048194D02*
X142139829Y-167191051D01*
X142139829Y-167191051D02*
X141425543Y-167333908D01*
X142639828Y-166833908D02*
X142996971Y-167833908D01*
X142996971Y-167833908D02*
X143354114Y-166833908D01*
X143568400Y-167976765D02*
X144711257Y-167976765D01*
X145568399Y-167048194D02*
X145782685Y-167119622D01*
X145782685Y-167119622D02*
X145854114Y-167191051D01*
X145854114Y-167191051D02*
X145925542Y-167333908D01*
X145925542Y-167333908D02*
X145925542Y-167548194D01*
X145925542Y-167548194D02*
X145854114Y-167691051D01*
X145854114Y-167691051D02*
X145782685Y-167762480D01*
X145782685Y-167762480D02*
X145639828Y-167833908D01*
X145639828Y-167833908D02*
X145068399Y-167833908D01*
X145068399Y-167833908D02*
X145068399Y-166333908D01*
X145068399Y-166333908D02*
X145568399Y-166333908D01*
X145568399Y-166333908D02*
X145711257Y-166405337D01*
X145711257Y-166405337D02*
X145782685Y-166476765D01*
X145782685Y-166476765D02*
X145854114Y-166619622D01*
X145854114Y-166619622D02*
X145854114Y-166762480D01*
X145854114Y-166762480D02*
X145782685Y-166905337D01*
X145782685Y-166905337D02*
X145711257Y-166976765D01*
X145711257Y-166976765D02*
X145568399Y-167048194D01*
X145568399Y-167048194D02*
X145068399Y-167048194D01*
X116986372Y-162234894D02*
X116486372Y-162234894D01*
X116486372Y-163020608D02*
X116486372Y-161520608D01*
X116486372Y-161520608D02*
X117200658Y-161520608D01*
X118414944Y-163020608D02*
X118414944Y-162234894D01*
X118414944Y-162234894D02*
X118343515Y-162092037D01*
X118343515Y-162092037D02*
X118200658Y-162020608D01*
X118200658Y-162020608D02*
X117914944Y-162020608D01*
X117914944Y-162020608D02*
X117772086Y-162092037D01*
X118414944Y-162949180D02*
X118272086Y-163020608D01*
X118272086Y-163020608D02*
X117914944Y-163020608D01*
X117914944Y-163020608D02*
X117772086Y-162949180D01*
X117772086Y-162949180D02*
X117700658Y-162806322D01*
X117700658Y-162806322D02*
X117700658Y-162663465D01*
X117700658Y-162663465D02*
X117772086Y-162520608D01*
X117772086Y-162520608D02*
X117914944Y-162449180D01*
X117914944Y-162449180D02*
X118272086Y-162449180D01*
X118272086Y-162449180D02*
X118414944Y-162377751D01*
X119772087Y-162949180D02*
X119629229Y-163020608D01*
X119629229Y-163020608D02*
X119343515Y-163020608D01*
X119343515Y-163020608D02*
X119200658Y-162949180D01*
X119200658Y-162949180D02*
X119129229Y-162877751D01*
X119129229Y-162877751D02*
X119057801Y-162734894D01*
X119057801Y-162734894D02*
X119057801Y-162306322D01*
X119057801Y-162306322D02*
X119129229Y-162163465D01*
X119129229Y-162163465D02*
X119200658Y-162092037D01*
X119200658Y-162092037D02*
X119343515Y-162020608D01*
X119343515Y-162020608D02*
X119629229Y-162020608D01*
X119629229Y-162020608D02*
X119772087Y-162092037D01*
X120986372Y-162949180D02*
X120843515Y-163020608D01*
X120843515Y-163020608D02*
X120557801Y-163020608D01*
X120557801Y-163020608D02*
X120414943Y-162949180D01*
X120414943Y-162949180D02*
X120343515Y-162806322D01*
X120343515Y-162806322D02*
X120343515Y-162234894D01*
X120343515Y-162234894D02*
X120414943Y-162092037D01*
X120414943Y-162092037D02*
X120557801Y-162020608D01*
X120557801Y-162020608D02*
X120843515Y-162020608D01*
X120843515Y-162020608D02*
X120986372Y-162092037D01*
X120986372Y-162092037D02*
X121057801Y-162234894D01*
X121057801Y-162234894D02*
X121057801Y-162377751D01*
X121057801Y-162377751D02*
X120343515Y-162520608D01*
X121914943Y-163020608D02*
X121772086Y-162949180D01*
X121772086Y-162949180D02*
X121700657Y-162806322D01*
X121700657Y-162806322D02*
X121700657Y-161520608D01*
X123057800Y-162949180D02*
X122914943Y-163020608D01*
X122914943Y-163020608D02*
X122629229Y-163020608D01*
X122629229Y-163020608D02*
X122486371Y-162949180D01*
X122486371Y-162949180D02*
X122414943Y-162806322D01*
X122414943Y-162806322D02*
X122414943Y-162234894D01*
X122414943Y-162234894D02*
X122486371Y-162092037D01*
X122486371Y-162092037D02*
X122629229Y-162020608D01*
X122629229Y-162020608D02*
X122914943Y-162020608D01*
X122914943Y-162020608D02*
X123057800Y-162092037D01*
X123057800Y-162092037D02*
X123129229Y-162234894D01*
X123129229Y-162234894D02*
X123129229Y-162377751D01*
X123129229Y-162377751D02*
X122414943Y-162520608D01*
X123700657Y-162949180D02*
X123843514Y-163020608D01*
X123843514Y-163020608D02*
X124129228Y-163020608D01*
X124129228Y-163020608D02*
X124272085Y-162949180D01*
X124272085Y-162949180D02*
X124343514Y-162806322D01*
X124343514Y-162806322D02*
X124343514Y-162734894D01*
X124343514Y-162734894D02*
X124272085Y-162592037D01*
X124272085Y-162592037D02*
X124129228Y-162520608D01*
X124129228Y-162520608D02*
X123914943Y-162520608D01*
X123914943Y-162520608D02*
X123772085Y-162449180D01*
X123772085Y-162449180D02*
X123700657Y-162306322D01*
X123700657Y-162306322D02*
X123700657Y-162234894D01*
X123700657Y-162234894D02*
X123772085Y-162092037D01*
X123772085Y-162092037D02*
X123914943Y-162020608D01*
X123914943Y-162020608D02*
X124129228Y-162020608D01*
X124129228Y-162020608D02*
X124272085Y-162092037D01*
X124914943Y-162949180D02*
X125057800Y-163020608D01*
X125057800Y-163020608D02*
X125343514Y-163020608D01*
X125343514Y-163020608D02*
X125486371Y-162949180D01*
X125486371Y-162949180D02*
X125557800Y-162806322D01*
X125557800Y-162806322D02*
X125557800Y-162734894D01*
X125557800Y-162734894D02*
X125486371Y-162592037D01*
X125486371Y-162592037D02*
X125343514Y-162520608D01*
X125343514Y-162520608D02*
X125129229Y-162520608D01*
X125129229Y-162520608D02*
X124986371Y-162449180D01*
X124986371Y-162449180D02*
X124914943Y-162306322D01*
X124914943Y-162306322D02*
X124914943Y-162234894D01*
X124914943Y-162234894D02*
X124986371Y-162092037D01*
X124986371Y-162092037D02*
X125129229Y-162020608D01*
X125129229Y-162020608D02*
X125343514Y-162020608D01*
X125343514Y-162020608D02*
X125486371Y-162092037D01*
X125986372Y-162020608D02*
X126557800Y-162020608D01*
X126200657Y-161520608D02*
X126200657Y-162806322D01*
X126200657Y-162806322D02*
X126272086Y-162949180D01*
X126272086Y-162949180D02*
X126414943Y-163020608D01*
X126414943Y-163020608D02*
X126557800Y-163020608D01*
X127629229Y-162949180D02*
X127486372Y-163020608D01*
X127486372Y-163020608D02*
X127200658Y-163020608D01*
X127200658Y-163020608D02*
X127057800Y-162949180D01*
X127057800Y-162949180D02*
X126986372Y-162806322D01*
X126986372Y-162806322D02*
X126986372Y-162234894D01*
X126986372Y-162234894D02*
X127057800Y-162092037D01*
X127057800Y-162092037D02*
X127200658Y-162020608D01*
X127200658Y-162020608D02*
X127486372Y-162020608D01*
X127486372Y-162020608D02*
X127629229Y-162092037D01*
X127629229Y-162092037D02*
X127700658Y-162234894D01*
X127700658Y-162234894D02*
X127700658Y-162377751D01*
X127700658Y-162377751D02*
X126986372Y-162520608D01*
X128986372Y-162949180D02*
X128843514Y-163020608D01*
X128843514Y-163020608D02*
X128557800Y-163020608D01*
X128557800Y-163020608D02*
X128414943Y-162949180D01*
X128414943Y-162949180D02*
X128343514Y-162877751D01*
X128343514Y-162877751D02*
X128272086Y-162734894D01*
X128272086Y-162734894D02*
X128272086Y-162306322D01*
X128272086Y-162306322D02*
X128343514Y-162163465D01*
X128343514Y-162163465D02*
X128414943Y-162092037D01*
X128414943Y-162092037D02*
X128557800Y-162020608D01*
X128557800Y-162020608D02*
X128843514Y-162020608D01*
X128843514Y-162020608D02*
X128986372Y-162092037D01*
X129629228Y-163020608D02*
X129629228Y-161520608D01*
X130272086Y-163020608D02*
X130272086Y-162234894D01*
X130272086Y-162234894D02*
X130200657Y-162092037D01*
X130200657Y-162092037D02*
X130057800Y-162020608D01*
X130057800Y-162020608D02*
X129843514Y-162020608D01*
X129843514Y-162020608D02*
X129700657Y-162092037D01*
X129700657Y-162092037D02*
X129629228Y-162163465D01*
X132057800Y-161663465D02*
X132129228Y-161592037D01*
X132129228Y-161592037D02*
X132272086Y-161520608D01*
X132272086Y-161520608D02*
X132629228Y-161520608D01*
X132629228Y-161520608D02*
X132772086Y-161592037D01*
X132772086Y-161592037D02*
X132843514Y-161663465D01*
X132843514Y-161663465D02*
X132914943Y-161806322D01*
X132914943Y-161806322D02*
X132914943Y-161949180D01*
X132914943Y-161949180D02*
X132843514Y-162163465D01*
X132843514Y-162163465D02*
X131986371Y-163020608D01*
X131986371Y-163020608D02*
X132914943Y-163020608D01*
X133843514Y-161520608D02*
X133986371Y-161520608D01*
X133986371Y-161520608D02*
X134129228Y-161592037D01*
X134129228Y-161592037D02*
X134200657Y-161663465D01*
X134200657Y-161663465D02*
X134272085Y-161806322D01*
X134272085Y-161806322D02*
X134343514Y-162092037D01*
X134343514Y-162092037D02*
X134343514Y-162449180D01*
X134343514Y-162449180D02*
X134272085Y-162734894D01*
X134272085Y-162734894D02*
X134200657Y-162877751D01*
X134200657Y-162877751D02*
X134129228Y-162949180D01*
X134129228Y-162949180D02*
X133986371Y-163020608D01*
X133986371Y-163020608D02*
X133843514Y-163020608D01*
X133843514Y-163020608D02*
X133700657Y-162949180D01*
X133700657Y-162949180D02*
X133629228Y-162877751D01*
X133629228Y-162877751D02*
X133557799Y-162734894D01*
X133557799Y-162734894D02*
X133486371Y-162449180D01*
X133486371Y-162449180D02*
X133486371Y-162092037D01*
X133486371Y-162092037D02*
X133557799Y-161806322D01*
X133557799Y-161806322D02*
X133629228Y-161663465D01*
X133629228Y-161663465D02*
X133700657Y-161592037D01*
X133700657Y-161592037D02*
X133843514Y-161520608D01*
X134914942Y-161663465D02*
X134986370Y-161592037D01*
X134986370Y-161592037D02*
X135129228Y-161520608D01*
X135129228Y-161520608D02*
X135486370Y-161520608D01*
X135486370Y-161520608D02*
X135629228Y-161592037D01*
X135629228Y-161592037D02*
X135700656Y-161663465D01*
X135700656Y-161663465D02*
X135772085Y-161806322D01*
X135772085Y-161806322D02*
X135772085Y-161949180D01*
X135772085Y-161949180D02*
X135700656Y-162163465D01*
X135700656Y-162163465D02*
X134843513Y-163020608D01*
X134843513Y-163020608D02*
X135772085Y-163020608D01*
X137057799Y-162020608D02*
X137057799Y-163020608D01*
X136700656Y-161449180D02*
X136343513Y-162520608D01*
X136343513Y-162520608D02*
X137272084Y-162520608D01*
D10*
X171281705Y-122492399D02*
X171281705Y-121492399D01*
X171281705Y-121492399D02*
X171519800Y-121492399D01*
X171519800Y-121492399D02*
X171662657Y-121540018D01*
X171662657Y-121540018D02*
X171757895Y-121635256D01*
X171757895Y-121635256D02*
X171805514Y-121730494D01*
X171805514Y-121730494D02*
X171853133Y-121920970D01*
X171853133Y-121920970D02*
X171853133Y-122063827D01*
X171853133Y-122063827D02*
X171805514Y-122254303D01*
X171805514Y-122254303D02*
X171757895Y-122349541D01*
X171757895Y-122349541D02*
X171662657Y-122444780D01*
X171662657Y-122444780D02*
X171519800Y-122492399D01*
X171519800Y-122492399D02*
X171281705Y-122492399D01*
X172424562Y-121920970D02*
X172329324Y-121873351D01*
X172329324Y-121873351D02*
X172281705Y-121825732D01*
X172281705Y-121825732D02*
X172234086Y-121730494D01*
X172234086Y-121730494D02*
X172234086Y-121682875D01*
X172234086Y-121682875D02*
X172281705Y-121587637D01*
X172281705Y-121587637D02*
X172329324Y-121540018D01*
X172329324Y-121540018D02*
X172424562Y-121492399D01*
X172424562Y-121492399D02*
X172615038Y-121492399D01*
X172615038Y-121492399D02*
X172710276Y-121540018D01*
X172710276Y-121540018D02*
X172757895Y-121587637D01*
X172757895Y-121587637D02*
X172805514Y-121682875D01*
X172805514Y-121682875D02*
X172805514Y-121730494D01*
X172805514Y-121730494D02*
X172757895Y-121825732D01*
X172757895Y-121825732D02*
X172710276Y-121873351D01*
X172710276Y-121873351D02*
X172615038Y-121920970D01*
X172615038Y-121920970D02*
X172424562Y-121920970D01*
X172424562Y-121920970D02*
X172329324Y-121968589D01*
X172329324Y-121968589D02*
X172281705Y-122016208D01*
X172281705Y-122016208D02*
X172234086Y-122111446D01*
X172234086Y-122111446D02*
X172234086Y-122301922D01*
X172234086Y-122301922D02*
X172281705Y-122397160D01*
X172281705Y-122397160D02*
X172329324Y-122444780D01*
X172329324Y-122444780D02*
X172424562Y-122492399D01*
X172424562Y-122492399D02*
X172615038Y-122492399D01*
X172615038Y-122492399D02*
X172710276Y-122444780D01*
X172710276Y-122444780D02*
X172757895Y-122397160D01*
X172757895Y-122397160D02*
X172805514Y-122301922D01*
X172805514Y-122301922D02*
X172805514Y-122111446D01*
X172805514Y-122111446D02*
X172757895Y-122016208D01*
X172757895Y-122016208D02*
X172710276Y-121968589D01*
X172710276Y-121968589D02*
X172615038Y-121920970D01*
X120184905Y-154608899D02*
X120184905Y-155418422D01*
X120184905Y-155418422D02*
X120232524Y-155513660D01*
X120232524Y-155513660D02*
X120280143Y-155561280D01*
X120280143Y-155561280D02*
X120375381Y-155608899D01*
X120375381Y-155608899D02*
X120565857Y-155608899D01*
X120565857Y-155608899D02*
X120661095Y-155561280D01*
X120661095Y-155561280D02*
X120708714Y-155513660D01*
X120708714Y-155513660D02*
X120756333Y-155418422D01*
X120756333Y-155418422D02*
X120756333Y-154608899D01*
X121756333Y-155608899D02*
X121184905Y-155608899D01*
X121470619Y-155608899D02*
X121470619Y-154608899D01*
X121470619Y-154608899D02*
X121375381Y-154751756D01*
X121375381Y-154751756D02*
X121280143Y-154846994D01*
X121280143Y-154846994D02*
X121184905Y-154894613D01*
X122089667Y-154608899D02*
X122708714Y-154608899D01*
X122708714Y-154608899D02*
X122375381Y-154989851D01*
X122375381Y-154989851D02*
X122518238Y-154989851D01*
X122518238Y-154989851D02*
X122613476Y-155037470D01*
X122613476Y-155037470D02*
X122661095Y-155085089D01*
X122661095Y-155085089D02*
X122708714Y-155180327D01*
X122708714Y-155180327D02*
X122708714Y-155418422D01*
X122708714Y-155418422D02*
X122661095Y-155513660D01*
X122661095Y-155513660D02*
X122613476Y-155561280D01*
X122613476Y-155561280D02*
X122518238Y-155608899D01*
X122518238Y-155608899D02*
X122232524Y-155608899D01*
X122232524Y-155608899D02*
X122137286Y-155561280D01*
X122137286Y-155561280D02*
X122089667Y-155513660D01*
X120856667Y-130479700D02*
X120999524Y-130527319D01*
X120999524Y-130527319D02*
X121237619Y-130527319D01*
X121237619Y-130527319D02*
X121332857Y-130479700D01*
X121332857Y-130479700D02*
X121380476Y-130432080D01*
X121380476Y-130432080D02*
X121428095Y-130336842D01*
X121428095Y-130336842D02*
X121428095Y-130241604D01*
X121428095Y-130241604D02*
X121380476Y-130146366D01*
X121380476Y-130146366D02*
X121332857Y-130098747D01*
X121332857Y-130098747D02*
X121237619Y-130051128D01*
X121237619Y-130051128D02*
X121047143Y-130003509D01*
X121047143Y-130003509D02*
X120951905Y-129955890D01*
X120951905Y-129955890D02*
X120904286Y-129908271D01*
X120904286Y-129908271D02*
X120856667Y-129813033D01*
X120856667Y-129813033D02*
X120856667Y-129717795D01*
X120856667Y-129717795D02*
X120904286Y-129622557D01*
X120904286Y-129622557D02*
X120951905Y-129574938D01*
X120951905Y-129574938D02*
X121047143Y-129527319D01*
X121047143Y-129527319D02*
X121285238Y-129527319D01*
X121285238Y-129527319D02*
X121428095Y-129574938D01*
X121761429Y-129527319D02*
X121999524Y-130527319D01*
X121999524Y-130527319D02*
X122190000Y-129813033D01*
X122190000Y-129813033D02*
X122380476Y-130527319D01*
X122380476Y-130527319D02*
X122618572Y-129527319D01*
X123523333Y-130527319D02*
X122951905Y-130527319D01*
X123237619Y-130527319D02*
X123237619Y-129527319D01*
X123237619Y-129527319D02*
X123142381Y-129670176D01*
X123142381Y-129670176D02*
X123047143Y-129765414D01*
X123047143Y-129765414D02*
X122951905Y-129813033D01*
X113106667Y-138229700D02*
X113249524Y-138277319D01*
X113249524Y-138277319D02*
X113487619Y-138277319D01*
X113487619Y-138277319D02*
X113582857Y-138229700D01*
X113582857Y-138229700D02*
X113630476Y-138182080D01*
X113630476Y-138182080D02*
X113678095Y-138086842D01*
X113678095Y-138086842D02*
X113678095Y-137991604D01*
X113678095Y-137991604D02*
X113630476Y-137896366D01*
X113630476Y-137896366D02*
X113582857Y-137848747D01*
X113582857Y-137848747D02*
X113487619Y-137801128D01*
X113487619Y-137801128D02*
X113297143Y-137753509D01*
X113297143Y-137753509D02*
X113201905Y-137705890D01*
X113201905Y-137705890D02*
X113154286Y-137658271D01*
X113154286Y-137658271D02*
X113106667Y-137563033D01*
X113106667Y-137563033D02*
X113106667Y-137467795D01*
X113106667Y-137467795D02*
X113154286Y-137372557D01*
X113154286Y-137372557D02*
X113201905Y-137324938D01*
X113201905Y-137324938D02*
X113297143Y-137277319D01*
X113297143Y-137277319D02*
X113535238Y-137277319D01*
X113535238Y-137277319D02*
X113678095Y-137324938D01*
X114011429Y-137277319D02*
X114249524Y-138277319D01*
X114249524Y-138277319D02*
X114440000Y-137563033D01*
X114440000Y-137563033D02*
X114630476Y-138277319D01*
X114630476Y-138277319D02*
X114868572Y-137277319D01*
X115154286Y-137277319D02*
X115773333Y-137277319D01*
X115773333Y-137277319D02*
X115440000Y-137658271D01*
X115440000Y-137658271D02*
X115582857Y-137658271D01*
X115582857Y-137658271D02*
X115678095Y-137705890D01*
X115678095Y-137705890D02*
X115725714Y-137753509D01*
X115725714Y-137753509D02*
X115773333Y-137848747D01*
X115773333Y-137848747D02*
X115773333Y-138086842D01*
X115773333Y-138086842D02*
X115725714Y-138182080D01*
X115725714Y-138182080D02*
X115678095Y-138229700D01*
X115678095Y-138229700D02*
X115582857Y-138277319D01*
X115582857Y-138277319D02*
X115297143Y-138277319D01*
X115297143Y-138277319D02*
X115201905Y-138229700D01*
X115201905Y-138229700D02*
X115154286Y-138182080D01*
X113341905Y-141864819D02*
X113341905Y-140864819D01*
X113341905Y-140864819D02*
X113580000Y-140864819D01*
X113580000Y-140864819D02*
X113722857Y-140912438D01*
X113722857Y-140912438D02*
X113818095Y-141007676D01*
X113818095Y-141007676D02*
X113865714Y-141102914D01*
X113865714Y-141102914D02*
X113913333Y-141293390D01*
X113913333Y-141293390D02*
X113913333Y-141436247D01*
X113913333Y-141436247D02*
X113865714Y-141626723D01*
X113865714Y-141626723D02*
X113818095Y-141721961D01*
X113818095Y-141721961D02*
X113722857Y-141817200D01*
X113722857Y-141817200D02*
X113580000Y-141864819D01*
X113580000Y-141864819D02*
X113341905Y-141864819D01*
X114770476Y-141198152D02*
X114770476Y-141864819D01*
X114532381Y-140817200D02*
X114294286Y-141531485D01*
X114294286Y-141531485D02*
X114913333Y-141531485D01*
X128344667Y-138349700D02*
X128487524Y-138397319D01*
X128487524Y-138397319D02*
X128725619Y-138397319D01*
X128725619Y-138397319D02*
X128820857Y-138349700D01*
X128820857Y-138349700D02*
X128868476Y-138302080D01*
X128868476Y-138302080D02*
X128916095Y-138206842D01*
X128916095Y-138206842D02*
X128916095Y-138111604D01*
X128916095Y-138111604D02*
X128868476Y-138016366D01*
X128868476Y-138016366D02*
X128820857Y-137968747D01*
X128820857Y-137968747D02*
X128725619Y-137921128D01*
X128725619Y-137921128D02*
X128535143Y-137873509D01*
X128535143Y-137873509D02*
X128439905Y-137825890D01*
X128439905Y-137825890D02*
X128392286Y-137778271D01*
X128392286Y-137778271D02*
X128344667Y-137683033D01*
X128344667Y-137683033D02*
X128344667Y-137587795D01*
X128344667Y-137587795D02*
X128392286Y-137492557D01*
X128392286Y-137492557D02*
X128439905Y-137444938D01*
X128439905Y-137444938D02*
X128535143Y-137397319D01*
X128535143Y-137397319D02*
X128773238Y-137397319D01*
X128773238Y-137397319D02*
X128916095Y-137444938D01*
X129249429Y-137397319D02*
X129487524Y-138397319D01*
X129487524Y-138397319D02*
X129678000Y-137683033D01*
X129678000Y-137683033D02*
X129868476Y-138397319D01*
X129868476Y-138397319D02*
X130106572Y-137397319D01*
X130916095Y-137730652D02*
X130916095Y-138397319D01*
X130678000Y-137349700D02*
X130439905Y-138063985D01*
X130439905Y-138063985D02*
X131058952Y-138063985D01*
X144729295Y-103036019D02*
X144729295Y-103845542D01*
X144729295Y-103845542D02*
X144776914Y-103940780D01*
X144776914Y-103940780D02*
X144824533Y-103988400D01*
X144824533Y-103988400D02*
X144919771Y-104036019D01*
X144919771Y-104036019D02*
X145110247Y-104036019D01*
X145110247Y-104036019D02*
X145205485Y-103988400D01*
X145205485Y-103988400D02*
X145253104Y-103940780D01*
X145253104Y-103940780D02*
X145300723Y-103845542D01*
X145300723Y-103845542D02*
X145300723Y-103036019D01*
X146300723Y-104036019D02*
X145729295Y-104036019D01*
X146015009Y-104036019D02*
X146015009Y-103036019D01*
X146015009Y-103036019D02*
X145919771Y-103178876D01*
X145919771Y-103178876D02*
X145824533Y-103274114D01*
X145824533Y-103274114D02*
X145729295Y-103321733D01*
X147389914Y-97402995D02*
X147008962Y-97402995D01*
X147008962Y-97402995D02*
X147008962Y-96602995D01*
X147656581Y-96983947D02*
X147923247Y-96983947D01*
X148037533Y-97402995D02*
X147656581Y-97402995D01*
X147656581Y-97402995D02*
X147656581Y-96602995D01*
X147656581Y-96602995D02*
X148037533Y-96602995D01*
X148380391Y-97402995D02*
X148380391Y-96602995D01*
X148380391Y-96602995D02*
X148570867Y-96602995D01*
X148570867Y-96602995D02*
X148685153Y-96641090D01*
X148685153Y-96641090D02*
X148761343Y-96717280D01*
X148761343Y-96717280D02*
X148799438Y-96793471D01*
X148799438Y-96793471D02*
X148837534Y-96945852D01*
X148837534Y-96945852D02*
X148837534Y-97060138D01*
X148837534Y-97060138D02*
X148799438Y-97212519D01*
X148799438Y-97212519D02*
X148761343Y-97288709D01*
X148761343Y-97288709D02*
X148685153Y-97364900D01*
X148685153Y-97364900D02*
X148570867Y-97402995D01*
X148570867Y-97402995D02*
X148380391Y-97402995D01*
X147389914Y-101974995D02*
X147008962Y-101974995D01*
X147008962Y-101974995D02*
X147008962Y-101174995D01*
X147656581Y-101555947D02*
X147923247Y-101555947D01*
X148037533Y-101974995D02*
X147656581Y-101974995D01*
X147656581Y-101974995D02*
X147656581Y-101174995D01*
X147656581Y-101174995D02*
X148037533Y-101174995D01*
X148380391Y-101974995D02*
X148380391Y-101174995D01*
X148380391Y-101174995D02*
X148570867Y-101174995D01*
X148570867Y-101174995D02*
X148685153Y-101213090D01*
X148685153Y-101213090D02*
X148761343Y-101289280D01*
X148761343Y-101289280D02*
X148799438Y-101365471D01*
X148799438Y-101365471D02*
X148837534Y-101517852D01*
X148837534Y-101517852D02*
X148837534Y-101632138D01*
X148837534Y-101632138D02*
X148799438Y-101784519D01*
X148799438Y-101784519D02*
X148761343Y-101860709D01*
X148761343Y-101860709D02*
X148685153Y-101936900D01*
X148685153Y-101936900D02*
X148570867Y-101974995D01*
X148570867Y-101974995D02*
X148380391Y-101974995D01*
X138958604Y-101242138D02*
X138863366Y-101194519D01*
X138863366Y-101194519D02*
X138720509Y-101194519D01*
X138720509Y-101194519D02*
X138577652Y-101242138D01*
X138577652Y-101242138D02*
X138482414Y-101337376D01*
X138482414Y-101337376D02*
X138434795Y-101432614D01*
X138434795Y-101432614D02*
X138387176Y-101623090D01*
X138387176Y-101623090D02*
X138387176Y-101765947D01*
X138387176Y-101765947D02*
X138434795Y-101956423D01*
X138434795Y-101956423D02*
X138482414Y-102051661D01*
X138482414Y-102051661D02*
X138577652Y-102146900D01*
X138577652Y-102146900D02*
X138720509Y-102194519D01*
X138720509Y-102194519D02*
X138815747Y-102194519D01*
X138815747Y-102194519D02*
X138958604Y-102146900D01*
X138958604Y-102146900D02*
X139006223Y-102099280D01*
X139006223Y-102099280D02*
X139006223Y-101765947D01*
X139006223Y-101765947D02*
X138815747Y-101765947D01*
X145300723Y-96679161D02*
X145491199Y-97212495D01*
X145491199Y-97212495D02*
X145681676Y-96679161D01*
X144546604Y-96416138D02*
X144451366Y-96368519D01*
X144451366Y-96368519D02*
X144308509Y-96368519D01*
X144308509Y-96368519D02*
X144165652Y-96416138D01*
X144165652Y-96416138D02*
X144070414Y-96511376D01*
X144070414Y-96511376D02*
X144022795Y-96606614D01*
X144022795Y-96606614D02*
X143975176Y-96797090D01*
X143975176Y-96797090D02*
X143975176Y-96939947D01*
X143975176Y-96939947D02*
X144022795Y-97130423D01*
X144022795Y-97130423D02*
X144070414Y-97225661D01*
X144070414Y-97225661D02*
X144165652Y-97320900D01*
X144165652Y-97320900D02*
X144308509Y-97368519D01*
X144308509Y-97368519D02*
X144403747Y-97368519D01*
X144403747Y-97368519D02*
X144546604Y-97320900D01*
X144546604Y-97320900D02*
X144594223Y-97273280D01*
X144594223Y-97273280D02*
X144594223Y-96939947D01*
X144594223Y-96939947D02*
X144403747Y-96939947D01*
X138958604Y-96352638D02*
X138863366Y-96305019D01*
X138863366Y-96305019D02*
X138720509Y-96305019D01*
X138720509Y-96305019D02*
X138577652Y-96352638D01*
X138577652Y-96352638D02*
X138482414Y-96447876D01*
X138482414Y-96447876D02*
X138434795Y-96543114D01*
X138434795Y-96543114D02*
X138387176Y-96733590D01*
X138387176Y-96733590D02*
X138387176Y-96876447D01*
X138387176Y-96876447D02*
X138434795Y-97066923D01*
X138434795Y-97066923D02*
X138482414Y-97162161D01*
X138482414Y-97162161D02*
X138577652Y-97257400D01*
X138577652Y-97257400D02*
X138720509Y-97305019D01*
X138720509Y-97305019D02*
X138815747Y-97305019D01*
X138815747Y-97305019D02*
X138958604Y-97257400D01*
X138958604Y-97257400D02*
X139006223Y-97209780D01*
X139006223Y-97209780D02*
X139006223Y-96876447D01*
X139006223Y-96876447D02*
X138815747Y-96876447D01*
D13*
X153828762Y-100631009D02*
X153543048Y-100631009D01*
X153685905Y-100631009D02*
X153685905Y-100131009D01*
X153685905Y-100131009D02*
X153638286Y-100202438D01*
X153638286Y-100202438D02*
X153590667Y-100250057D01*
X153590667Y-100250057D02*
X153543048Y-100273866D01*
X154114476Y-100345295D02*
X154066857Y-100321485D01*
X154066857Y-100321485D02*
X154043047Y-100297676D01*
X154043047Y-100297676D02*
X154019238Y-100250057D01*
X154019238Y-100250057D02*
X154019238Y-100226247D01*
X154019238Y-100226247D02*
X154043047Y-100178628D01*
X154043047Y-100178628D02*
X154066857Y-100154819D01*
X154066857Y-100154819D02*
X154114476Y-100131009D01*
X154114476Y-100131009D02*
X154209714Y-100131009D01*
X154209714Y-100131009D02*
X154257333Y-100154819D01*
X154257333Y-100154819D02*
X154281142Y-100178628D01*
X154281142Y-100178628D02*
X154304952Y-100226247D01*
X154304952Y-100226247D02*
X154304952Y-100250057D01*
X154304952Y-100250057D02*
X154281142Y-100297676D01*
X154281142Y-100297676D02*
X154257333Y-100321485D01*
X154257333Y-100321485D02*
X154209714Y-100345295D01*
X154209714Y-100345295D02*
X154114476Y-100345295D01*
X154114476Y-100345295D02*
X154066857Y-100369104D01*
X154066857Y-100369104D02*
X154043047Y-100392914D01*
X154043047Y-100392914D02*
X154019238Y-100440533D01*
X154019238Y-100440533D02*
X154019238Y-100535771D01*
X154019238Y-100535771D02*
X154043047Y-100583390D01*
X154043047Y-100583390D02*
X154066857Y-100607200D01*
X154066857Y-100607200D02*
X154114476Y-100631009D01*
X154114476Y-100631009D02*
X154209714Y-100631009D01*
X154209714Y-100631009D02*
X154257333Y-100607200D01*
X154257333Y-100607200D02*
X154281142Y-100583390D01*
X154281142Y-100583390D02*
X154304952Y-100535771D01*
X154304952Y-100535771D02*
X154304952Y-100440533D01*
X154304952Y-100440533D02*
X154281142Y-100392914D01*
X154281142Y-100392914D02*
X154257333Y-100369104D01*
X154257333Y-100369104D02*
X154209714Y-100345295D01*
X137302857Y-100631009D02*
X137017143Y-100631009D01*
X137160000Y-100631009D02*
X137160000Y-100131009D01*
X137160000Y-100131009D02*
X137112381Y-100202438D01*
X137112381Y-100202438D02*
X137064762Y-100250057D01*
X137064762Y-100250057D02*
X137017143Y-100273866D01*
D10*
X144546604Y-101242138D02*
X144451366Y-101194519D01*
X144451366Y-101194519D02*
X144308509Y-101194519D01*
X144308509Y-101194519D02*
X144165652Y-101242138D01*
X144165652Y-101242138D02*
X144070414Y-101337376D01*
X144070414Y-101337376D02*
X144022795Y-101432614D01*
X144022795Y-101432614D02*
X143975176Y-101623090D01*
X143975176Y-101623090D02*
X143975176Y-101765947D01*
X143975176Y-101765947D02*
X144022795Y-101956423D01*
X144022795Y-101956423D02*
X144070414Y-102051661D01*
X144070414Y-102051661D02*
X144165652Y-102146900D01*
X144165652Y-102146900D02*
X144308509Y-102194519D01*
X144308509Y-102194519D02*
X144403747Y-102194519D01*
X144403747Y-102194519D02*
X144546604Y-102146900D01*
X144546604Y-102146900D02*
X144594223Y-102099280D01*
X144594223Y-102099280D02*
X144594223Y-101765947D01*
X144594223Y-101765947D02*
X144403747Y-101765947D01*
X145300723Y-101441661D02*
X145491199Y-101974995D01*
X145491199Y-101974995D02*
X145681676Y-101441661D01*
X160256667Y-139757200D02*
X160399524Y-139804819D01*
X160399524Y-139804819D02*
X160637619Y-139804819D01*
X160637619Y-139804819D02*
X160732857Y-139757200D01*
X160732857Y-139757200D02*
X160780476Y-139709580D01*
X160780476Y-139709580D02*
X160828095Y-139614342D01*
X160828095Y-139614342D02*
X160828095Y-139519104D01*
X160828095Y-139519104D02*
X160780476Y-139423866D01*
X160780476Y-139423866D02*
X160732857Y-139376247D01*
X160732857Y-139376247D02*
X160637619Y-139328628D01*
X160637619Y-139328628D02*
X160447143Y-139281009D01*
X160447143Y-139281009D02*
X160351905Y-139233390D01*
X160351905Y-139233390D02*
X160304286Y-139185771D01*
X160304286Y-139185771D02*
X160256667Y-139090533D01*
X160256667Y-139090533D02*
X160256667Y-138995295D01*
X160256667Y-138995295D02*
X160304286Y-138900057D01*
X160304286Y-138900057D02*
X160351905Y-138852438D01*
X160351905Y-138852438D02*
X160447143Y-138804819D01*
X160447143Y-138804819D02*
X160685238Y-138804819D01*
X160685238Y-138804819D02*
X160828095Y-138852438D01*
X161161429Y-138804819D02*
X161399524Y-139804819D01*
X161399524Y-139804819D02*
X161590000Y-139090533D01*
X161590000Y-139090533D02*
X161780476Y-139804819D01*
X161780476Y-139804819D02*
X162018572Y-138804819D01*
X162828095Y-138804819D02*
X162637619Y-138804819D01*
X162637619Y-138804819D02*
X162542381Y-138852438D01*
X162542381Y-138852438D02*
X162494762Y-138900057D01*
X162494762Y-138900057D02*
X162399524Y-139042914D01*
X162399524Y-139042914D02*
X162351905Y-139233390D01*
X162351905Y-139233390D02*
X162351905Y-139614342D01*
X162351905Y-139614342D02*
X162399524Y-139709580D01*
X162399524Y-139709580D02*
X162447143Y-139757200D01*
X162447143Y-139757200D02*
X162542381Y-139804819D01*
X162542381Y-139804819D02*
X162732857Y-139804819D01*
X162732857Y-139804819D02*
X162828095Y-139757200D01*
X162828095Y-139757200D02*
X162875714Y-139709580D01*
X162875714Y-139709580D02*
X162923333Y-139614342D01*
X162923333Y-139614342D02*
X162923333Y-139376247D01*
X162923333Y-139376247D02*
X162875714Y-139281009D01*
X162875714Y-139281009D02*
X162828095Y-139233390D01*
X162828095Y-139233390D02*
X162732857Y-139185771D01*
X162732857Y-139185771D02*
X162542381Y-139185771D01*
X162542381Y-139185771D02*
X162447143Y-139233390D01*
X162447143Y-139233390D02*
X162399524Y-139281009D01*
X162399524Y-139281009D02*
X162351905Y-139376247D01*
X149136667Y-157722200D02*
X149279524Y-157769819D01*
X149279524Y-157769819D02*
X149517619Y-157769819D01*
X149517619Y-157769819D02*
X149612857Y-157722200D01*
X149612857Y-157722200D02*
X149660476Y-157674580D01*
X149660476Y-157674580D02*
X149708095Y-157579342D01*
X149708095Y-157579342D02*
X149708095Y-157484104D01*
X149708095Y-157484104D02*
X149660476Y-157388866D01*
X149660476Y-157388866D02*
X149612857Y-157341247D01*
X149612857Y-157341247D02*
X149517619Y-157293628D01*
X149517619Y-157293628D02*
X149327143Y-157246009D01*
X149327143Y-157246009D02*
X149231905Y-157198390D01*
X149231905Y-157198390D02*
X149184286Y-157150771D01*
X149184286Y-157150771D02*
X149136667Y-157055533D01*
X149136667Y-157055533D02*
X149136667Y-156960295D01*
X149136667Y-156960295D02*
X149184286Y-156865057D01*
X149184286Y-156865057D02*
X149231905Y-156817438D01*
X149231905Y-156817438D02*
X149327143Y-156769819D01*
X149327143Y-156769819D02*
X149565238Y-156769819D01*
X149565238Y-156769819D02*
X149708095Y-156817438D01*
X150041429Y-156769819D02*
X150279524Y-157769819D01*
X150279524Y-157769819D02*
X150470000Y-157055533D01*
X150470000Y-157055533D02*
X150660476Y-157769819D01*
X150660476Y-157769819D02*
X150898572Y-156769819D01*
X151422381Y-157198390D02*
X151327143Y-157150771D01*
X151327143Y-157150771D02*
X151279524Y-157103152D01*
X151279524Y-157103152D02*
X151231905Y-157007914D01*
X151231905Y-157007914D02*
X151231905Y-156960295D01*
X151231905Y-156960295D02*
X151279524Y-156865057D01*
X151279524Y-156865057D02*
X151327143Y-156817438D01*
X151327143Y-156817438D02*
X151422381Y-156769819D01*
X151422381Y-156769819D02*
X151612857Y-156769819D01*
X151612857Y-156769819D02*
X151708095Y-156817438D01*
X151708095Y-156817438D02*
X151755714Y-156865057D01*
X151755714Y-156865057D02*
X151803333Y-156960295D01*
X151803333Y-156960295D02*
X151803333Y-157007914D01*
X151803333Y-157007914D02*
X151755714Y-157103152D01*
X151755714Y-157103152D02*
X151708095Y-157150771D01*
X151708095Y-157150771D02*
X151612857Y-157198390D01*
X151612857Y-157198390D02*
X151422381Y-157198390D01*
X151422381Y-157198390D02*
X151327143Y-157246009D01*
X151327143Y-157246009D02*
X151279524Y-157293628D01*
X151279524Y-157293628D02*
X151231905Y-157388866D01*
X151231905Y-157388866D02*
X151231905Y-157579342D01*
X151231905Y-157579342D02*
X151279524Y-157674580D01*
X151279524Y-157674580D02*
X151327143Y-157722200D01*
X151327143Y-157722200D02*
X151422381Y-157769819D01*
X151422381Y-157769819D02*
X151612857Y-157769819D01*
X151612857Y-157769819D02*
X151708095Y-157722200D01*
X151708095Y-157722200D02*
X151755714Y-157674580D01*
X151755714Y-157674580D02*
X151803333Y-157579342D01*
X151803333Y-157579342D02*
X151803333Y-157388866D01*
X151803333Y-157388866D02*
X151755714Y-157293628D01*
X151755714Y-157293628D02*
X151708095Y-157246009D01*
X151708095Y-157246009D02*
X151612857Y-157198390D01*
X145765200Y-125753332D02*
X145812819Y-125610475D01*
X145812819Y-125610475D02*
X145812819Y-125372380D01*
X145812819Y-125372380D02*
X145765200Y-125277142D01*
X145765200Y-125277142D02*
X145717580Y-125229523D01*
X145717580Y-125229523D02*
X145622342Y-125181904D01*
X145622342Y-125181904D02*
X145527104Y-125181904D01*
X145527104Y-125181904D02*
X145431866Y-125229523D01*
X145431866Y-125229523D02*
X145384247Y-125277142D01*
X145384247Y-125277142D02*
X145336628Y-125372380D01*
X145336628Y-125372380D02*
X145289009Y-125562856D01*
X145289009Y-125562856D02*
X145241390Y-125658094D01*
X145241390Y-125658094D02*
X145193771Y-125705713D01*
X145193771Y-125705713D02*
X145098533Y-125753332D01*
X145098533Y-125753332D02*
X145003295Y-125753332D01*
X145003295Y-125753332D02*
X144908057Y-125705713D01*
X144908057Y-125705713D02*
X144860438Y-125658094D01*
X144860438Y-125658094D02*
X144812819Y-125562856D01*
X144812819Y-125562856D02*
X144812819Y-125324761D01*
X144812819Y-125324761D02*
X144860438Y-125181904D01*
X144812819Y-124848570D02*
X145812819Y-124610475D01*
X145812819Y-124610475D02*
X145098533Y-124419999D01*
X145098533Y-124419999D02*
X145812819Y-124229523D01*
X145812819Y-124229523D02*
X144812819Y-123991428D01*
X145812819Y-123562856D02*
X145812819Y-123372380D01*
X145812819Y-123372380D02*
X145765200Y-123277142D01*
X145765200Y-123277142D02*
X145717580Y-123229523D01*
X145717580Y-123229523D02*
X145574723Y-123134285D01*
X145574723Y-123134285D02*
X145384247Y-123086666D01*
X145384247Y-123086666D02*
X145003295Y-123086666D01*
X145003295Y-123086666D02*
X144908057Y-123134285D01*
X144908057Y-123134285D02*
X144860438Y-123181904D01*
X144860438Y-123181904D02*
X144812819Y-123277142D01*
X144812819Y-123277142D02*
X144812819Y-123467618D01*
X144812819Y-123467618D02*
X144860438Y-123562856D01*
X144860438Y-123562856D02*
X144908057Y-123610475D01*
X144908057Y-123610475D02*
X145003295Y-123658094D01*
X145003295Y-123658094D02*
X145241390Y-123658094D01*
X145241390Y-123658094D02*
X145336628Y-123610475D01*
X145336628Y-123610475D02*
X145384247Y-123562856D01*
X145384247Y-123562856D02*
X145431866Y-123467618D01*
X145431866Y-123467618D02*
X145431866Y-123277142D01*
X145431866Y-123277142D02*
X145384247Y-123181904D01*
X145384247Y-123181904D02*
X145336628Y-123134285D01*
X145336628Y-123134285D02*
X145241390Y-123086666D01*
X128211905Y-141534819D02*
X128211905Y-140534819D01*
X128211905Y-140534819D02*
X128450000Y-140534819D01*
X128450000Y-140534819D02*
X128592857Y-140582438D01*
X128592857Y-140582438D02*
X128688095Y-140677676D01*
X128688095Y-140677676D02*
X128735714Y-140772914D01*
X128735714Y-140772914D02*
X128783333Y-140963390D01*
X128783333Y-140963390D02*
X128783333Y-141106247D01*
X128783333Y-141106247D02*
X128735714Y-141296723D01*
X128735714Y-141296723D02*
X128688095Y-141391961D01*
X128688095Y-141391961D02*
X128592857Y-141487200D01*
X128592857Y-141487200D02*
X128450000Y-141534819D01*
X128450000Y-141534819D02*
X128211905Y-141534819D01*
X129116667Y-140534819D02*
X129735714Y-140534819D01*
X129735714Y-140534819D02*
X129402381Y-140915771D01*
X129402381Y-140915771D02*
X129545238Y-140915771D01*
X129545238Y-140915771D02*
X129640476Y-140963390D01*
X129640476Y-140963390D02*
X129688095Y-141011009D01*
X129688095Y-141011009D02*
X129735714Y-141106247D01*
X129735714Y-141106247D02*
X129735714Y-141344342D01*
X129735714Y-141344342D02*
X129688095Y-141439580D01*
X129688095Y-141439580D02*
X129640476Y-141487200D01*
X129640476Y-141487200D02*
X129545238Y-141534819D01*
X129545238Y-141534819D02*
X129259524Y-141534819D01*
X129259524Y-141534819D02*
X129164286Y-141487200D01*
X129164286Y-141487200D02*
X129116667Y-141439580D01*
X170636667Y-135809700D02*
X170779524Y-135857319D01*
X170779524Y-135857319D02*
X171017619Y-135857319D01*
X171017619Y-135857319D02*
X171112857Y-135809700D01*
X171112857Y-135809700D02*
X171160476Y-135762080D01*
X171160476Y-135762080D02*
X171208095Y-135666842D01*
X171208095Y-135666842D02*
X171208095Y-135571604D01*
X171208095Y-135571604D02*
X171160476Y-135476366D01*
X171160476Y-135476366D02*
X171112857Y-135428747D01*
X171112857Y-135428747D02*
X171017619Y-135381128D01*
X171017619Y-135381128D02*
X170827143Y-135333509D01*
X170827143Y-135333509D02*
X170731905Y-135285890D01*
X170731905Y-135285890D02*
X170684286Y-135238271D01*
X170684286Y-135238271D02*
X170636667Y-135143033D01*
X170636667Y-135143033D02*
X170636667Y-135047795D01*
X170636667Y-135047795D02*
X170684286Y-134952557D01*
X170684286Y-134952557D02*
X170731905Y-134904938D01*
X170731905Y-134904938D02*
X170827143Y-134857319D01*
X170827143Y-134857319D02*
X171065238Y-134857319D01*
X171065238Y-134857319D02*
X171208095Y-134904938D01*
X171541429Y-134857319D02*
X171779524Y-135857319D01*
X171779524Y-135857319D02*
X171970000Y-135143033D01*
X171970000Y-135143033D02*
X172160476Y-135857319D01*
X172160476Y-135857319D02*
X172398572Y-134857319D01*
X173255714Y-134857319D02*
X172779524Y-134857319D01*
X172779524Y-134857319D02*
X172731905Y-135333509D01*
X172731905Y-135333509D02*
X172779524Y-135285890D01*
X172779524Y-135285890D02*
X172874762Y-135238271D01*
X172874762Y-135238271D02*
X173112857Y-135238271D01*
X173112857Y-135238271D02*
X173208095Y-135285890D01*
X173208095Y-135285890D02*
X173255714Y-135333509D01*
X173255714Y-135333509D02*
X173303333Y-135428747D01*
X173303333Y-135428747D02*
X173303333Y-135666842D01*
X173303333Y-135666842D02*
X173255714Y-135762080D01*
X173255714Y-135762080D02*
X173208095Y-135809700D01*
X173208095Y-135809700D02*
X173112857Y-135857319D01*
X173112857Y-135857319D02*
X172874762Y-135857319D01*
X172874762Y-135857319D02*
X172779524Y-135809700D01*
X172779524Y-135809700D02*
X172731905Y-135762080D01*
X120856667Y-145845780D02*
X120999524Y-145893399D01*
X120999524Y-145893399D02*
X121237619Y-145893399D01*
X121237619Y-145893399D02*
X121332857Y-145845780D01*
X121332857Y-145845780D02*
X121380476Y-145798160D01*
X121380476Y-145798160D02*
X121428095Y-145702922D01*
X121428095Y-145702922D02*
X121428095Y-145607684D01*
X121428095Y-145607684D02*
X121380476Y-145512446D01*
X121380476Y-145512446D02*
X121332857Y-145464827D01*
X121332857Y-145464827D02*
X121237619Y-145417208D01*
X121237619Y-145417208D02*
X121047143Y-145369589D01*
X121047143Y-145369589D02*
X120951905Y-145321970D01*
X120951905Y-145321970D02*
X120904286Y-145274351D01*
X120904286Y-145274351D02*
X120856667Y-145179113D01*
X120856667Y-145179113D02*
X120856667Y-145083875D01*
X120856667Y-145083875D02*
X120904286Y-144988637D01*
X120904286Y-144988637D02*
X120951905Y-144941018D01*
X120951905Y-144941018D02*
X121047143Y-144893399D01*
X121047143Y-144893399D02*
X121285238Y-144893399D01*
X121285238Y-144893399D02*
X121428095Y-144941018D01*
X121761429Y-144893399D02*
X121999524Y-145893399D01*
X121999524Y-145893399D02*
X122190000Y-145179113D01*
X122190000Y-145179113D02*
X122380476Y-145893399D01*
X122380476Y-145893399D02*
X122618572Y-144893399D01*
X122951905Y-144988637D02*
X122999524Y-144941018D01*
X122999524Y-144941018D02*
X123094762Y-144893399D01*
X123094762Y-144893399D02*
X123332857Y-144893399D01*
X123332857Y-144893399D02*
X123428095Y-144941018D01*
X123428095Y-144941018D02*
X123475714Y-144988637D01*
X123475714Y-144988637D02*
X123523333Y-145083875D01*
X123523333Y-145083875D02*
X123523333Y-145179113D01*
X123523333Y-145179113D02*
X123475714Y-145321970D01*
X123475714Y-145321970D02*
X122904286Y-145893399D01*
X122904286Y-145893399D02*
X123523333Y-145893399D01*
X157211905Y-142034819D02*
X157211905Y-141034819D01*
X157211905Y-141034819D02*
X157450000Y-141034819D01*
X157450000Y-141034819D02*
X157592857Y-141082438D01*
X157592857Y-141082438D02*
X157688095Y-141177676D01*
X157688095Y-141177676D02*
X157735714Y-141272914D01*
X157735714Y-141272914D02*
X157783333Y-141463390D01*
X157783333Y-141463390D02*
X157783333Y-141606247D01*
X157783333Y-141606247D02*
X157735714Y-141796723D01*
X157735714Y-141796723D02*
X157688095Y-141891961D01*
X157688095Y-141891961D02*
X157592857Y-141987200D01*
X157592857Y-141987200D02*
X157450000Y-142034819D01*
X157450000Y-142034819D02*
X157211905Y-142034819D01*
X158116667Y-141034819D02*
X158783333Y-141034819D01*
X158783333Y-141034819D02*
X158354762Y-142034819D01*
X176231168Y-136040786D02*
X176993073Y-136040786D01*
X176612120Y-136421739D02*
X176612120Y-135659834D01*
X173696248Y-136040786D02*
X174458153Y-136040786D01*
X173800633Y-96882419D02*
X173467300Y-96406228D01*
X173229205Y-96882419D02*
X173229205Y-95882419D01*
X173229205Y-95882419D02*
X173610157Y-95882419D01*
X173610157Y-95882419D02*
X173705395Y-95930038D01*
X173705395Y-95930038D02*
X173753014Y-95977657D01*
X173753014Y-95977657D02*
X173800633Y-96072895D01*
X173800633Y-96072895D02*
X173800633Y-96215752D01*
X173800633Y-96215752D02*
X173753014Y-96310990D01*
X173753014Y-96310990D02*
X173705395Y-96358609D01*
X173705395Y-96358609D02*
X173610157Y-96406228D01*
X173610157Y-96406228D02*
X173229205Y-96406228D01*
X174753014Y-96882419D02*
X174181586Y-96882419D01*
X174467300Y-96882419D02*
X174467300Y-95882419D01*
X174467300Y-95882419D02*
X174372062Y-96025276D01*
X174372062Y-96025276D02*
X174276824Y-96120514D01*
X174276824Y-96120514D02*
X174181586Y-96168133D01*
X113980605Y-123089299D02*
X113980605Y-122089299D01*
X113980605Y-122089299D02*
X114218700Y-122089299D01*
X114218700Y-122089299D02*
X114361557Y-122136918D01*
X114361557Y-122136918D02*
X114456795Y-122232156D01*
X114456795Y-122232156D02*
X114504414Y-122327394D01*
X114504414Y-122327394D02*
X114552033Y-122517870D01*
X114552033Y-122517870D02*
X114552033Y-122660727D01*
X114552033Y-122660727D02*
X114504414Y-122851203D01*
X114504414Y-122851203D02*
X114456795Y-122946441D01*
X114456795Y-122946441D02*
X114361557Y-123041680D01*
X114361557Y-123041680D02*
X114218700Y-123089299D01*
X114218700Y-123089299D02*
X113980605Y-123089299D01*
X114932986Y-122184537D02*
X114980605Y-122136918D01*
X114980605Y-122136918D02*
X115075843Y-122089299D01*
X115075843Y-122089299D02*
X115313938Y-122089299D01*
X115313938Y-122089299D02*
X115409176Y-122136918D01*
X115409176Y-122136918D02*
X115456795Y-122184537D01*
X115456795Y-122184537D02*
X115504414Y-122279775D01*
X115504414Y-122279775D02*
X115504414Y-122375013D01*
X115504414Y-122375013D02*
X115456795Y-122517870D01*
X115456795Y-122517870D02*
X114885367Y-123089299D01*
X114885367Y-123089299D02*
X115504414Y-123089299D01*
X128925905Y-123190899D02*
X128925905Y-122190899D01*
X128925905Y-122190899D02*
X129164000Y-122190899D01*
X129164000Y-122190899D02*
X129306857Y-122238518D01*
X129306857Y-122238518D02*
X129402095Y-122333756D01*
X129402095Y-122333756D02*
X129449714Y-122428994D01*
X129449714Y-122428994D02*
X129497333Y-122619470D01*
X129497333Y-122619470D02*
X129497333Y-122762327D01*
X129497333Y-122762327D02*
X129449714Y-122952803D01*
X129449714Y-122952803D02*
X129402095Y-123048041D01*
X129402095Y-123048041D02*
X129306857Y-123143280D01*
X129306857Y-123143280D02*
X129164000Y-123190899D01*
X129164000Y-123190899D02*
X128925905Y-123190899D01*
X130449714Y-123190899D02*
X129878286Y-123190899D01*
X130164000Y-123190899D02*
X130164000Y-122190899D01*
X130164000Y-122190899D02*
X130068762Y-122333756D01*
X130068762Y-122333756D02*
X129973524Y-122428994D01*
X129973524Y-122428994D02*
X129878286Y-122476613D01*
X137746667Y-157729800D02*
X137889524Y-157777419D01*
X137889524Y-157777419D02*
X138127619Y-157777419D01*
X138127619Y-157777419D02*
X138222857Y-157729800D01*
X138222857Y-157729800D02*
X138270476Y-157682180D01*
X138270476Y-157682180D02*
X138318095Y-157586942D01*
X138318095Y-157586942D02*
X138318095Y-157491704D01*
X138318095Y-157491704D02*
X138270476Y-157396466D01*
X138270476Y-157396466D02*
X138222857Y-157348847D01*
X138222857Y-157348847D02*
X138127619Y-157301228D01*
X138127619Y-157301228D02*
X137937143Y-157253609D01*
X137937143Y-157253609D02*
X137841905Y-157205990D01*
X137841905Y-157205990D02*
X137794286Y-157158371D01*
X137794286Y-157158371D02*
X137746667Y-157063133D01*
X137746667Y-157063133D02*
X137746667Y-156967895D01*
X137746667Y-156967895D02*
X137794286Y-156872657D01*
X137794286Y-156872657D02*
X137841905Y-156825038D01*
X137841905Y-156825038D02*
X137937143Y-156777419D01*
X137937143Y-156777419D02*
X138175238Y-156777419D01*
X138175238Y-156777419D02*
X138318095Y-156825038D01*
X138651429Y-156777419D02*
X138889524Y-157777419D01*
X138889524Y-157777419D02*
X139080000Y-157063133D01*
X139080000Y-157063133D02*
X139270476Y-157777419D01*
X139270476Y-157777419D02*
X139508572Y-156777419D01*
X139794286Y-156777419D02*
X140460952Y-156777419D01*
X140460952Y-156777419D02*
X140032381Y-157777419D01*
X156614906Y-168679531D02*
X156614906Y-167917627D01*
X156625066Y-171244931D02*
X156625066Y-170483027D01*
X157006019Y-170863979D02*
X156244114Y-170863979D01*
X169709200Y-122419603D02*
X169756819Y-122276746D01*
X169756819Y-122276746D02*
X169756819Y-122038651D01*
X169756819Y-122038651D02*
X169709200Y-121943413D01*
X169709200Y-121943413D02*
X169661580Y-121895794D01*
X169661580Y-121895794D02*
X169566342Y-121848175D01*
X169566342Y-121848175D02*
X169471104Y-121848175D01*
X169471104Y-121848175D02*
X169375866Y-121895794D01*
X169375866Y-121895794D02*
X169328247Y-121943413D01*
X169328247Y-121943413D02*
X169280628Y-122038651D01*
X169280628Y-122038651D02*
X169233009Y-122229127D01*
X169233009Y-122229127D02*
X169185390Y-122324365D01*
X169185390Y-122324365D02*
X169137771Y-122371984D01*
X169137771Y-122371984D02*
X169042533Y-122419603D01*
X169042533Y-122419603D02*
X168947295Y-122419603D01*
X168947295Y-122419603D02*
X168852057Y-122371984D01*
X168852057Y-122371984D02*
X168804438Y-122324365D01*
X168804438Y-122324365D02*
X168756819Y-122229127D01*
X168756819Y-122229127D02*
X168756819Y-121991032D01*
X168756819Y-121991032D02*
X168804438Y-121848175D01*
X168756819Y-121514841D02*
X169756819Y-121276746D01*
X169756819Y-121276746D02*
X169042533Y-121086270D01*
X169042533Y-121086270D02*
X169756819Y-120895794D01*
X169756819Y-120895794D02*
X168756819Y-120657699D01*
X169756819Y-119752937D02*
X169756819Y-120324365D01*
X169756819Y-120038651D02*
X168756819Y-120038651D01*
X168756819Y-120038651D02*
X168899676Y-120133889D01*
X168899676Y-120133889D02*
X168994914Y-120229127D01*
X168994914Y-120229127D02*
X169042533Y-120324365D01*
X168756819Y-119133889D02*
X168756819Y-119038651D01*
X168756819Y-119038651D02*
X168804438Y-118943413D01*
X168804438Y-118943413D02*
X168852057Y-118895794D01*
X168852057Y-118895794D02*
X168947295Y-118848175D01*
X168947295Y-118848175D02*
X169137771Y-118800556D01*
X169137771Y-118800556D02*
X169375866Y-118800556D01*
X169375866Y-118800556D02*
X169566342Y-118848175D01*
X169566342Y-118848175D02*
X169661580Y-118895794D01*
X169661580Y-118895794D02*
X169709200Y-118943413D01*
X169709200Y-118943413D02*
X169756819Y-119038651D01*
X169756819Y-119038651D02*
X169756819Y-119133889D01*
X169756819Y-119133889D02*
X169709200Y-119229127D01*
X169709200Y-119229127D02*
X169661580Y-119276746D01*
X169661580Y-119276746D02*
X169566342Y-119324365D01*
X169566342Y-119324365D02*
X169375866Y-119371984D01*
X169375866Y-119371984D02*
X169137771Y-119371984D01*
X169137771Y-119371984D02*
X168947295Y-119324365D01*
X168947295Y-119324365D02*
X168852057Y-119276746D01*
X168852057Y-119276746D02*
X168804438Y-119229127D01*
X168804438Y-119229127D02*
X168756819Y-119133889D01*
D14*
%TO.C,D5*%
X137670000Y-158175000D02*
X137670000Y-159645000D01*
X137670000Y-159645000D02*
X140130000Y-159645000D01*
X140130000Y-158175000D02*
X137670000Y-158175000D01*
%TO.C,D8*%
X170359800Y-122732580D02*
X170359800Y-124202580D01*
X170359800Y-124202580D02*
X172819800Y-124202580D01*
X172819800Y-122732580D02*
X170359800Y-122732580D01*
%TO.C,D6*%
X148847300Y-158175000D02*
X148847300Y-159645000D01*
X148847300Y-159645000D02*
X151307300Y-159645000D01*
X151307300Y-158175000D02*
X148847300Y-158175000D01*
D10*
%TO.C,U13*%
X113549000Y-146899080D02*
X113549000Y-171918080D01*
X113549000Y-171918080D02*
X129297000Y-171918080D01*
X121423000Y-146899080D02*
X113549000Y-146899080D01*
X129297000Y-146899080D02*
X121423000Y-146899080D01*
X129297000Y-171918080D02*
X129297000Y-146899080D01*
%TO.C,U20*%
X135296737Y-141720000D02*
G75*
G02*
X131903263Y-141720000I-1696737J0D01*
G01*
X131903263Y-141720000D02*
G75*
G02*
X135296737Y-141720000I1696737J0D01*
G01*
%TO.C,SW1*%
X119205500Y-121055500D02*
X125174500Y-121055500D01*
X119205500Y-127024500D02*
X119205500Y-121055500D01*
X125174500Y-121055500D02*
X125174500Y-127024500D01*
X125174500Y-127024500D02*
X119205500Y-127024500D01*
X126935112Y-124040000D02*
G75*
G02*
X117444888Y-124040000I-4745112J0D01*
G01*
X117444888Y-124040000D02*
G75*
G02*
X126935112Y-124040000I4745112J0D01*
G01*
%TO.C,SW3*%
X111455500Y-128805500D02*
X117424500Y-128805500D01*
X111455500Y-134774500D02*
X111455500Y-128805500D01*
X117424500Y-128805500D02*
X117424500Y-134774500D01*
X117424500Y-134774500D02*
X111455500Y-134774500D01*
X119185112Y-131790000D02*
G75*
G02*
X109694888Y-131790000I-4745112J0D01*
G01*
X109694888Y-131790000D02*
G75*
G02*
X119185112Y-131790000I4745112J0D01*
G01*
%TO.C,U9*%
X179056737Y-102720000D02*
G75*
G02*
X175663263Y-102720000I-1696737J0D01*
G01*
X175663263Y-102720000D02*
G75*
G02*
X179056737Y-102720000I1696737J0D01*
G01*
%TO.C,U11*%
X113636737Y-102710000D02*
G75*
G02*
X110243263Y-102710000I-1696737J0D01*
G01*
X110243263Y-102710000D02*
G75*
G02*
X113636737Y-102710000I1696737J0D01*
G01*
D14*
%TO.C,D4*%
X112919000Y-138874280D02*
X112919000Y-140344280D01*
X112919000Y-140344280D02*
X115379000Y-140344280D01*
X115379000Y-138874280D02*
X112919000Y-138874280D01*
D10*
%TO.C,SW4*%
X126693500Y-128925500D02*
X132662500Y-128925500D01*
X126693500Y-134894500D02*
X126693500Y-128925500D01*
X132662500Y-128925500D02*
X132662500Y-134894500D01*
X132662500Y-134894500D02*
X126693500Y-134894500D01*
X134423112Y-131910000D02*
G75*
G02*
X124932888Y-131910000I-4745112J0D01*
G01*
X124932888Y-131910000D02*
G75*
G02*
X134423112Y-131910000I4745112J0D01*
G01*
%TO.C,U1*%
X119481600Y-116738400D02*
X119481600Y-46736000D01*
X119481600Y-116738400D02*
X169489120Y-116763800D01*
X119507000Y-46710600D02*
X169514520Y-46736000D01*
X145110200Y-96342200D02*
X145110200Y-97421700D01*
X145110200Y-102247700D02*
X145110200Y-101104700D01*
X145935700Y-96342200D02*
X145110200Y-96342200D01*
X145935700Y-97421700D02*
X145935700Y-96342200D01*
X145935700Y-101104700D02*
X145935700Y-102247700D01*
X145935700Y-102247700D02*
X145110200Y-102247700D01*
X146697700Y-97421700D02*
X146697700Y-96342200D01*
X146697700Y-101104700D02*
X146697700Y-102247700D01*
X146697700Y-102247700D02*
X149110700Y-102247700D01*
X149110700Y-96342200D02*
X146697700Y-96342200D01*
X149110700Y-97421700D02*
X149110700Y-96342200D01*
X149110700Y-102247700D02*
X149110700Y-101104700D01*
X169468800Y-116738400D02*
X169468800Y-46736000D01*
%TO.C,SW6*%
X154885500Y-131085500D02*
X160854500Y-131085500D01*
X154885500Y-137054500D02*
X154885500Y-131085500D01*
X160854500Y-131085500D02*
X160854500Y-137054500D01*
X160854500Y-137054500D02*
X154885500Y-137054500D01*
X162615112Y-134070000D02*
G75*
G02*
X153124888Y-134070000I-4745112J0D01*
G01*
X153124888Y-134070000D02*
G75*
G02*
X162615112Y-134070000I4745112J0D01*
G01*
%TO.C,U18*%
X178914037Y-140827460D02*
G75*
G02*
X175520563Y-140827460I-1696737J0D01*
G01*
X175520563Y-140827460D02*
G75*
G02*
X178914037Y-140827460I1696737J0D01*
G01*
%TO.C,SW9*%
X147263000Y-120483000D02*
X155137000Y-120483000D01*
X147263000Y-128357000D02*
X147263000Y-120483000D01*
X155137000Y-124420000D02*
X155137000Y-120483000D01*
X155137000Y-124420000D02*
X155137000Y-128230000D01*
X155137000Y-128230000D02*
X155137000Y-128357000D01*
X155137000Y-128357000D02*
X147263000Y-128357000D01*
X152167203Y-124420000D02*
G75*
G02*
X150232797Y-124420000I-967203J0D01*
G01*
X150232797Y-124420000D02*
G75*
G02*
X152167203Y-124420000I967203J0D01*
G01*
X153531410Y-124420000D02*
G75*
G02*
X148868590Y-124420000I-2331410J0D01*
G01*
X148868590Y-124420000D02*
G75*
G02*
X153531410Y-124420000I2331410J0D01*
G01*
%TO.C,U5*%
X179054037Y-58517460D02*
G75*
G02*
X175660563Y-58517460I-1696737J0D01*
G01*
X175660563Y-58517460D02*
G75*
G02*
X179054037Y-58517460I1696737J0D01*
G01*
D14*
%TO.C,D3*%
X128070100Y-138709180D02*
X128070100Y-140179180D01*
X128070100Y-140179180D02*
X130530100Y-140179180D01*
X130530100Y-138709180D02*
X128070100Y-138709180D01*
D10*
%TO.C,U16*%
X133346737Y-147690000D02*
G75*
G02*
X129953263Y-147690000I-1696737J0D01*
G01*
X129953263Y-147690000D02*
G75*
G02*
X133346737Y-147690000I1696737J0D01*
G01*
%TO.C,SW5*%
X168985500Y-126385500D02*
X174954500Y-126385500D01*
X168985500Y-132354500D02*
X168985500Y-126385500D01*
X174954500Y-126385500D02*
X174954500Y-132354500D01*
X174954500Y-132354500D02*
X168985500Y-132354500D01*
X176715112Y-129370000D02*
G75*
G02*
X167224888Y-129370000I-4745112J0D01*
G01*
X167224888Y-129370000D02*
G75*
G02*
X176715112Y-129370000I4745112J0D01*
G01*
%TO.C,SW2*%
X119205500Y-136421580D02*
X125174500Y-136421580D01*
X119205500Y-142390580D02*
X119205500Y-136421580D01*
X125174500Y-136421580D02*
X125174500Y-142390580D01*
X125174500Y-142390580D02*
X119205500Y-142390580D01*
X126935112Y-139406080D02*
G75*
G02*
X117444888Y-139406080I-4745112J0D01*
G01*
X117444888Y-139406080D02*
G75*
G02*
X126935112Y-139406080I4745112J0D01*
G01*
D14*
%TO.C,D7*%
X156302200Y-139052080D02*
X156302200Y-140522080D01*
X156302200Y-140522080D02*
X158762200Y-140522080D01*
X158762200Y-139052080D02*
X156302200Y-139052080D01*
%TO.C,R1*%
X173240236Y-97337600D02*
X174694364Y-97337600D01*
X173240236Y-99157600D02*
X174694364Y-99157600D01*
%TO.C,D2*%
X113058700Y-123329480D02*
X113058700Y-124799480D01*
X113058700Y-124799480D02*
X115518700Y-124799480D01*
X115518700Y-123329480D02*
X113058700Y-123329480D01*
D10*
%TO.C,U4*%
X113634037Y-59527460D02*
G75*
G02*
X110240563Y-59527460I-1696737J0D01*
G01*
X110240563Y-59527460D02*
G75*
G02*
X113634037Y-59527460I1696737J0D01*
G01*
D14*
%TO.C,D1*%
X128004000Y-123431080D02*
X128004000Y-124901080D01*
X128004000Y-124901080D02*
X130464000Y-124901080D01*
X130464000Y-123431080D02*
X128004000Y-123431080D01*
D10*
%TO.C,TP1*%
X169592069Y-138040000D02*
G75*
G02*
X163567931Y-138040000I-3012069J0D01*
G01*
X163567931Y-138040000D02*
G75*
G02*
X169592069Y-138040000I3012069J0D01*
G01*
%TO.C,U19*%
X162664037Y-127157460D02*
G75*
G02*
X159270563Y-127157460I-1696737J0D01*
G01*
X159270563Y-127157460D02*
G75*
G02*
X162664037Y-127157460I1696737J0D01*
G01*
%TO.C,U15*%
X160006737Y-148580000D02*
G75*
G02*
X156613263Y-148580000I-1696737J0D01*
G01*
X156613263Y-148580000D02*
G75*
G02*
X160006737Y-148580000I1696737J0D01*
G01*
%TO.C,U14*%
X140706737Y-133850000D02*
G75*
G02*
X137313263Y-133850000I-1696737J0D01*
G01*
X137313263Y-133850000D02*
G75*
G02*
X140706737Y-133850000I1696737J0D01*
G01*
%TO.C,SW10*%
X159523000Y-116673080D02*
X167397000Y-116673080D01*
X159523000Y-116800080D02*
X159523000Y-116673080D01*
X159523000Y-120610080D02*
X159523000Y-116800080D01*
X159523000Y-120610080D02*
X159523000Y-124547080D01*
X167397000Y-116673080D02*
X167397000Y-124547080D01*
X167397000Y-124547080D02*
X159523000Y-124547080D01*
X165791410Y-120610080D02*
G75*
G02*
X161128590Y-120610080I-2331410J0D01*
G01*
X161128590Y-120610080D02*
G75*
G02*
X165791410Y-120610080I2331410J0D01*
G01*
X164427203Y-120610080D02*
G75*
G02*
X162492797Y-120610080I-967203J0D01*
G01*
X162492797Y-120610080D02*
G75*
G02*
X164427203Y-120610080I967203J0D01*
G01*
%TO.C,U17*%
X113516737Y-145530000D02*
G75*
G02*
X110123263Y-145530000I-1696737J0D01*
G01*
X110123263Y-145530000D02*
G75*
G02*
X113516737Y-145530000I1696737J0D01*
G01*
%TD*%
M02*
