%TF.GenerationSoftware,KiCad,Pcbnew,8.0.5*%
%TF.CreationDate,2024-11-18T11:08:29+00:00*%
%TF.ProjectId,gbc_retrozero_combined,6762635f-7265-4747-926f-7a65726f5f63,rev?*%
%TF.SameCoordinates,Original*%
%TF.FileFunction,Copper,L1,Top*%
%TF.FilePolarity,Positive*%
%FSLAX46Y46*%
G04 Gerber Fmt 4.6, Leading zero omitted, Abs format (unit mm)*
G04 Created by KiCad (PCBNEW 8.0.5) date 2024-11-18 11:08:29*
%MOMM*%
%LPD*%
G01*
G04 APERTURE LIST*
G04 Aperture macros list*
%AMRoundRect*
0 Rectangle with rounded corners*
0 $1 Rounding radius*
0 $2 $3 $4 $5 $6 $7 $8 $9 X,Y pos of 4 corners*
0 Add a 4 corners polygon primitive as box body*
4,1,4,$2,$3,$4,$5,$6,$7,$8,$9,$2,$3,0*
0 Add four circle primitives for the rounded corners*
1,1,$1+$1,$2,$3*
1,1,$1+$1,$4,$5*
1,1,$1+$1,$6,$7*
1,1,$1+$1,$8,$9*
0 Add four rect primitives between the rounded corners*
20,1,$1+$1,$2,$3,$4,$5,0*
20,1,$1+$1,$4,$5,$6,$7,0*
20,1,$1+$1,$6,$7,$8,$9,0*
20,1,$1+$1,$8,$9,$2,$3,0*%
G04 Aperture macros list end*
%TA.AperFunction,SMDPad,CuDef*%
%ADD10RoundRect,0.237500X-0.287500X-0.237500X0.287500X-0.237500X0.287500X0.237500X-0.287500X0.237500X0*%
%TD*%
%TA.AperFunction,ComponentPad*%
%ADD11C,1.600000*%
%TD*%
%TA.AperFunction,SMDPad,CuDef*%
%ADD12RoundRect,0.400000X0.400000X1.100000X-0.400000X1.100000X-0.400000X-1.100000X0.400000X-1.100000X0*%
%TD*%
%TA.AperFunction,SMDPad,CuDef*%
%ADD13RoundRect,0.400000X0.400000X0.400000X-0.400000X0.400000X-0.400000X-0.400000X0.400000X-0.400000X0*%
%TD*%
%TA.AperFunction,ComponentPad*%
%ADD14C,2.800000*%
%TD*%
%TA.AperFunction,SMDPad,CuDef*%
%ADD15R,0.500000X5.000000*%
%TD*%
%TA.AperFunction,SMDPad,CuDef*%
%ADD16R,2.200000X4.000000*%
%TD*%
%TA.AperFunction,SMDPad,CuDef*%
%ADD17R,1.000000X2.000000*%
%TD*%
%TA.AperFunction,SMDPad,CuDef*%
%ADD18R,0.400000X3.000000*%
%TD*%
%TA.AperFunction,SMDPad,CuDef*%
%ADD19RoundRect,0.375000X-0.375000X-0.375000X0.375000X-0.375000X0.375000X0.375000X-0.375000X0.375000X0*%
%TD*%
%TA.AperFunction,SMDPad,CuDef*%
%ADD20R,1.250000X1.000000*%
%TD*%
%TA.AperFunction,SMDPad,CuDef*%
%ADD21R,1.500000X1.000000*%
%TD*%
%TA.AperFunction,ComponentPad*%
%ADD22C,3.500000*%
%TD*%
%TA.AperFunction,SMDPad,CuDef*%
%ADD23RoundRect,0.250000X-0.400000X-0.625000X0.400000X-0.625000X0.400000X0.625000X-0.400000X0.625000X0*%
%TD*%
%TA.AperFunction,ComponentPad*%
%ADD24C,1.500000*%
%TD*%
%TA.AperFunction,ComponentPad*%
%ADD25C,1.800000*%
%TD*%
%TA.AperFunction,ComponentPad*%
%ADD26C,1.900000*%
%TD*%
%TA.AperFunction,ViaPad*%
%ADD27C,0.800000*%
%TD*%
%TA.AperFunction,ViaPad*%
%ADD28C,0.600000*%
%TD*%
%TA.AperFunction,Conductor*%
%ADD29C,0.250000*%
%TD*%
%TA.AperFunction,Conductor*%
%ADD30C,0.200000*%
%TD*%
G04 APERTURE END LIST*
D10*
%TO.P,D5,1,K*%
%TO.N,Net-(D1-K)*%
X138455000Y-158910000D03*
%TO.P,D5,2,A*%
%TO.N,Net-(D1-A)*%
X140205000Y-158910000D03*
%TD*%
D11*
%TO.P,U3,3,Button*%
%TO.N,Net-(J1-GPIO21{slash}SCLK1)*%
X168366000Y-105216800D03*
%TD*%
D10*
%TO.P,D8,1,K*%
%TO.N,Net-(D1-K)*%
X171144800Y-123467580D03*
%TO.P,D8,2,A*%
%TO.N,Net-(D1-A)*%
X172894800Y-123467580D03*
%TD*%
%TO.P,D6,1,K*%
%TO.N,Net-(D1-K)*%
X149632300Y-158910000D03*
%TO.P,D6,2,A*%
%TO.N,Net-(D1-A)*%
X151382300Y-158910000D03*
%TD*%
D12*
%TO.P,U13,1,VIN*%
%TO.N,Net-(U13-VIN)*%
X127773000Y-148931080D03*
%TO.P,U13,2,GND*%
%TO.N,Net-(U2-GND)*%
X125233000Y-148931080D03*
%TO.P,U13,3,GND*%
%TO.N,Net-(U12-GND)*%
X122693000Y-148931080D03*
%TO.P,U13,4,BAT*%
%TO.N,Net-(U12-VCC)*%
X120153000Y-148931080D03*
%TO.P,U13,5,GND*%
%TO.N,Net-(U2-GND)*%
X117613000Y-148931080D03*
%TO.P,U13,6,VOUT*%
%TO.N,Net-(SW12-B)*%
X115073000Y-148931080D03*
D13*
%TO.P,U13,7,KEY*%
%TO.N,unconnected-(U13-KEY-Pad7)*%
X126249000Y-169378080D03*
%TD*%
D14*
%TO.P,U20,1,1*%
%TO.N,unconnected-(U20-Pad1)*%
X133600000Y-141720000D03*
%TD*%
D15*
%TO.P,SW1,1,1*%
%TO.N,Net-(J1-GPIO20{slash}MOSI1)*%
X121687080Y-124040000D03*
D16*
X124476000Y-124040000D03*
D17*
X124565200Y-120787600D03*
X124565200Y-127290000D03*
%TO.P,SW1,2,2*%
%TO.N,Net-(U2-GND)*%
X119790000Y-120787600D03*
X119790000Y-127290000D03*
D16*
X119904000Y-124040000D03*
D15*
X122692920Y-124040000D03*
%TD*%
%TO.P,SW3,1,1*%
%TO.N,Net-(J1-GPIO26)*%
X113937080Y-131790000D03*
D16*
X116726000Y-131790000D03*
D17*
X116815200Y-128537600D03*
X116815200Y-135040000D03*
%TO.P,SW3,2,2*%
%TO.N,Net-(U2-GND)*%
X112040000Y-128537600D03*
X112040000Y-135040000D03*
D16*
X112154000Y-131790000D03*
D15*
X114942920Y-131790000D03*
%TD*%
D14*
%TO.P,U9,1,1*%
%TO.N,unconnected-(U9-Pad1)*%
X177360000Y-102720000D03*
%TD*%
%TO.P,U11,1,1*%
%TO.N,unconnected-(U11-Pad1)*%
X111940000Y-102710000D03*
%TD*%
D10*
%TO.P,D4,1,K*%
%TO.N,Net-(D1-K)*%
X113704000Y-139609280D03*
%TO.P,D4,2,A*%
%TO.N,Net-(D1-A)*%
X115454000Y-139609280D03*
%TD*%
D15*
%TO.P,SW4,1,1*%
%TO.N,Net-(J1-GPIO19{slash}MISO1)*%
X129175080Y-131910000D03*
D16*
X131964000Y-131910000D03*
D17*
X132053200Y-128657600D03*
X132053200Y-135160000D03*
%TO.P,SW4,2,2*%
%TO.N,Net-(U2-GND)*%
X127278000Y-128657600D03*
X127278000Y-135160000D03*
D16*
X127392000Y-131910000D03*
D15*
X130180920Y-131910000D03*
%TD*%
D18*
%TO.P,U1,1,GND*%
%TO.N,Net-(U2-GND)*%
X138696700Y-99263200D03*
%TO.P,U1,2,RST*%
%TO.N,Net-(J1-GPIO27)*%
X139496800Y-99263200D03*
%TO.P,U1,3,SCK*%
%TO.N,Net-(J1-SCLK0{slash}GPIO11)*%
X140296900Y-99263200D03*
%TO.P,U1,4,DC*%
%TO.N,Net-(J1-GPIO25)*%
X141097000Y-99263200D03*
%TO.P,U1,5,CS*%
%TO.N,Net-(J1-~{CE0}{slash}GPIO8)*%
X141897100Y-99263200D03*
%TO.P,U1,6,MOSI*%
%TO.N,Net-(J1-MOSI0{slash}GPIO10)*%
X142697200Y-99263200D03*
%TO.P,U1,7*%
%TO.N,unconnected-(U1-Pad7)*%
X143497300Y-99263200D03*
%TO.P,U1,8,GND*%
%TO.N,Net-(U2-GND)*%
X144297400Y-99263200D03*
%TO.P,U1,9,VCC*%
%TO.N,Net-(J1-3V3-Pad1)*%
X145097500Y-99263200D03*
%TO.P,U1,10,VCC*%
X145897600Y-99263200D03*
%TO.P,U1,11,LED*%
%TO.N,Net-(R1-Pad2)*%
X146697700Y-99263200D03*
%TO.P,U1,12,LED*%
X147497800Y-99263200D03*
%TO.P,U1,13,LED*%
X148297900Y-99263200D03*
%TO.P,U1,14,LED*%
X149098000Y-99263200D03*
%TO.P,U1,15*%
%TO.N,unconnected-(U1-Pad15)*%
X149898100Y-99263200D03*
%TO.P,U1,16*%
%TO.N,unconnected-(U1-Pad16)*%
X150698200Y-99263200D03*
%TO.P,U1,17*%
%TO.N,unconnected-(U1-Pad17)*%
X151498300Y-99263200D03*
%TO.P,U1,18*%
%TO.N,unconnected-(U1-Pad18)*%
X152298400Y-99263200D03*
%TD*%
D11*
%TO.P,U2,1,GND*%
%TO.N,Net-(U2-GND)*%
X126049600Y-105216800D03*
%TO.P,U2,3,Button*%
%TO.N,Net-(J1-GPIO16)*%
X120969600Y-105216800D03*
%TD*%
D15*
%TO.P,SW6,1,1*%
%TO.N,Net-(J1-GPIO24)*%
X157367080Y-134070000D03*
D16*
X160156000Y-134070000D03*
D17*
X160245200Y-130817600D03*
X160245200Y-137320000D03*
%TO.P,SW6,2,2*%
%TO.N,Net-(U2-GND)*%
X155470000Y-130817600D03*
X155470000Y-137320000D03*
D16*
X155584000Y-134070000D03*
D15*
X158372920Y-134070000D03*
%TD*%
D14*
%TO.P,U18,1,1*%
%TO.N,unconnected-(U18-Pad1)*%
X177217300Y-140827460D03*
%TD*%
D19*
%TO.P,SW8,1,1*%
%TO.N,Net-(J1-GPIO23)*%
X147295000Y-153124000D03*
X149327000Y-155156000D03*
X151549500Y-153124000D03*
D17*
X152840000Y-150900000D03*
X152840000Y-157402400D03*
D19*
X153581500Y-155156000D03*
%TO.P,SW8,2,2*%
%TO.N,Net-(U2-GND)*%
X147295000Y-155156000D03*
D17*
X148064800Y-150900000D03*
X148064800Y-157402400D03*
D19*
X149327000Y-153124000D03*
X151549500Y-155156000D03*
X153581500Y-153124000D03*
%TD*%
D20*
%TO.P,SW9,1,1*%
%TO.N,Net-(U2-GND)*%
X154220000Y-122030000D03*
D11*
X155518000Y-122134000D03*
%TO.P,SW9,2,2*%
%TO.N,Net-(J1-GPIO22)*%
X155518000Y-126706000D03*
D20*
X154200000Y-126810000D03*
D21*
%TO.P,SW9,3*%
%TO.N,N/C*%
X148200000Y-122030000D03*
D11*
X147009000Y-122134000D03*
%TO.P,SW9,4*%
X147009000Y-126706000D03*
D21*
X148200000Y-126807600D03*
D22*
%TO.P,SW9,5*%
X151200000Y-124420000D03*
%TD*%
D14*
%TO.P,U5,1,1*%
%TO.N,unconnected-(U5-Pad1)*%
X177357300Y-58517460D03*
%TD*%
D10*
%TO.P,D3,1,K*%
%TO.N,Net-(D1-K)*%
X128855100Y-139444180D03*
%TO.P,D3,2,A*%
%TO.N,Net-(D1-A)*%
X130605100Y-139444180D03*
%TD*%
D14*
%TO.P,U16,1,1*%
%TO.N,unconnected-(U16-Pad1)*%
X131650000Y-147690000D03*
%TD*%
D15*
%TO.P,SW5,1,1*%
%TO.N,Net-(J1-PWM0{slash}GPIO12)*%
X171467080Y-129370000D03*
D16*
X174256000Y-129370000D03*
D17*
X174345200Y-126117600D03*
X174345200Y-132620000D03*
%TO.P,SW5,2,2*%
%TO.N,Net-(U2-GND)*%
X169570000Y-126117600D03*
X169570000Y-132620000D03*
D16*
X169684000Y-129370000D03*
D15*
X172472920Y-129370000D03*
%TD*%
%TO.P,SW2,1,1*%
%TO.N,Net-(J1-GCLK1{slash}GPIO5)*%
X121687080Y-139406080D03*
D16*
X124476000Y-139406080D03*
D17*
X124565200Y-136153680D03*
X124565200Y-142656080D03*
%TO.P,SW2,2,2*%
%TO.N,Net-(U2-GND)*%
X119790000Y-136153680D03*
X119790000Y-142656080D03*
D16*
X119904000Y-139406080D03*
D15*
X122692920Y-139406080D03*
%TD*%
D10*
%TO.P,D7,1,K*%
%TO.N,Net-(D1-K)*%
X157087200Y-139787080D03*
%TO.P,D7,2,A*%
%TO.N,Net-(D1-A)*%
X158837200Y-139787080D03*
%TD*%
D11*
%TO.P,U12,1,GND*%
%TO.N,Net-(U12-GND)*%
X174077200Y-137450280D03*
%TO.P,U12,2,VCC*%
%TO.N,Net-(U12-VCC)*%
X176617200Y-137450280D03*
%TD*%
D23*
%TO.P,R1,1*%
%TO.N,Net-(U2-GND)*%
X172417300Y-98247600D03*
%TO.P,R1,2*%
%TO.N,Net-(R1-Pad2)*%
X175517300Y-98247600D03*
%TD*%
D10*
%TO.P,D2,1,K*%
%TO.N,Net-(D1-K)*%
X113843700Y-124064480D03*
%TO.P,D2,2,A*%
%TO.N,Net-(D1-A)*%
X115593700Y-124064480D03*
%TD*%
D14*
%TO.P,U4,1,1*%
%TO.N,unconnected-(U4-Pad1)*%
X111937300Y-59527460D03*
%TD*%
D10*
%TO.P,D1,1,K*%
%TO.N,Net-(D1-K)*%
X128789000Y-124166080D03*
%TO.P,D1,2,A*%
%TO.N,Net-(D1-A)*%
X130539000Y-124166080D03*
%TD*%
D22*
%TO.P,TP1,1,1*%
%TO.N,unconnected-(TP1-Pad1)*%
X166580000Y-138040000D03*
%TD*%
D19*
%TO.P,SW7,1,1*%
%TO.N,Net-(J1-GCLK0{slash}GPIO4)*%
X135905000Y-153131600D03*
X137937000Y-155163600D03*
X140159500Y-153131600D03*
D17*
X141450000Y-150907600D03*
X141450000Y-157410000D03*
D19*
X142191500Y-155163600D03*
%TO.P,SW7,2,2*%
%TO.N,Net-(U2-GND)*%
X135905000Y-155163600D03*
D17*
X136674800Y-150907600D03*
X136674800Y-157410000D03*
D19*
X137937000Y-153131600D03*
X140159500Y-155163600D03*
X142191500Y-153131600D03*
%TD*%
D14*
%TO.P,U19,1,1*%
%TO.N,unconnected-(U19-Pad1)*%
X160967300Y-127157460D03*
%TD*%
%TO.P,U15,1,1*%
%TO.N,unconnected-(U15-Pad1)*%
X158310000Y-148580000D03*
%TD*%
D11*
%TO.P,LS1,1,1*%
%TO.N,Net-(U10-LEFT_OUT)*%
X158024400Y-170813180D03*
%TO.P,LS1,2,2*%
%TO.N,Net-(U10-GND)*%
X158024400Y-168273180D03*
%TD*%
D14*
%TO.P,U14,1,1*%
%TO.N,unconnected-(U14-Pad1)*%
X139010000Y-133850000D03*
%TD*%
D20*
%TO.P,SW10,1,1*%
%TO.N,Net-(U2-GND)*%
X160440000Y-123000080D03*
D11*
X159142000Y-122896080D03*
%TO.P,SW10,2,2*%
%TO.N,Net-(J1-GPIO17)*%
X159142000Y-118324080D03*
D20*
X160460000Y-118220080D03*
D21*
%TO.P,SW10,3*%
%TO.N,N/C*%
X166460000Y-123000080D03*
D11*
X167651000Y-122896080D03*
%TO.P,SW10,4*%
X167651000Y-118324080D03*
D21*
X166460000Y-118222480D03*
D22*
%TO.P,SW10,5*%
X163460000Y-120610080D03*
%TD*%
D14*
%TO.P,U17,1,1*%
%TO.N,unconnected-(U17-Pad1)*%
X111820000Y-145530000D03*
%TD*%
D24*
%TO.P,U7,1,SHIELD_GND*%
%TO.N,Net-(U2-GND)*%
X114454800Y-72909600D03*
X110657500Y-72909600D03*
X114454800Y-81545600D03*
X110657500Y-81545600D03*
%TD*%
%TO.P,U8,1,1*%
%TO.N,Net-(U10-GND)*%
X122004240Y-87387840D03*
%TO.P,U8,2,2*%
%TO.N,Net-(U6-L_+_OUT)*%
X122004240Y-89394440D03*
%TO.P,U8,3,3*%
%TO.N,Net-(U6-R_+_OUT)*%
X122004240Y-91401040D03*
%TO.P,U8,4,4*%
%TO.N,Net-(U10-LEFT_IN)*%
X122004240Y-93407640D03*
%TO.P,U8,5,5*%
%TO.N,Net-(U10-RIGHT_IN)*%
X122004240Y-95414240D03*
D25*
%TO.P,U8,6*%
%TO.N,N/C*%
X110879040Y-96569940D03*
%TO.P,U8,7*%
X110891740Y-86232140D03*
%TD*%
D26*
%TO.P,U10,1,GND*%
%TO.N,Net-(U10-GND)*%
X149946480Y-169623440D03*
%TO.P,U10,2,LEFT_IN*%
%TO.N,Net-(U10-LEFT_IN)*%
X155026480Y-164543440D03*
%TO.P,U10,3,LEFT_OUT*%
%TO.N,Net-(U10-LEFT_OUT)*%
X152486480Y-164543440D03*
%TO.P,U10,4,RIGHT_OUT*%
%TO.N,unconnected-(U10-RIGHT_OUT-Pad4)*%
X147406480Y-164543440D03*
%TO.P,U10,5,RIGHT_IN*%
%TO.N,Net-(U10-RIGHT_IN)*%
X144866480Y-164543440D03*
%TD*%
D27*
%TO.N,Net-(D1-K)*%
X166381000Y-127569680D03*
X121283300Y-130274780D03*
X113676000Y-137348680D03*
X125371003Y-130378077D03*
X158189500Y-124953480D03*
X164336300Y-130973280D03*
X132776800Y-156792380D03*
D28*
X147500000Y-158940000D03*
X156000000Y-139720000D03*
D27*
X126718900Y-139837880D03*
D28*
X161540000Y-137360000D03*
%TO.N,Net-(D1-A)*%
X115860000Y-141210000D03*
X131800000Y-151340000D03*
X115630000Y-120010000D03*
D27*
X130697800Y-54708900D03*
X149883700Y-135430980D03*
X134021400Y-136561280D03*
X136984800Y-58232600D03*
X132116400Y-138720280D03*
X131054800Y-59697600D03*
D28*
X115580000Y-122960000D03*
D27*
X150658400Y-131316180D03*
X131519500Y-156639980D03*
X166003800Y-77149800D03*
D28*
X119610000Y-144680000D03*
D27*
X166736600Y-119949680D03*
%TO.N,Net-(U10-GND)*%
X153490500Y-167955680D03*
X126557600Y-89481500D03*
X133154800Y-76397600D03*
X176034800Y-111397600D03*
%TO.N,Net-(U2-GND)*%
X134654800Y-100937600D03*
X144727500Y-156651580D03*
X146852200Y-74000200D03*
X157224300Y-127760180D03*
X134215700Y-53997700D03*
X120635600Y-153236380D03*
D28*
X135280000Y-158250000D03*
D27*
X169365500Y-134872180D03*
X134424800Y-62327600D03*
X151141000Y-150251880D03*
X128154800Y-100917600D03*
X124801200Y-153820580D03*
X145455200Y-66392900D03*
X145997500Y-147927780D03*
D28*
X173090000Y-101290000D03*
D27*
%TO.N,Net-(U6-L_IN)*%
X156034800Y-57507600D03*
X168714800Y-53777600D03*
%TO.N,Net-(U6-R_IN)*%
X123774800Y-56437600D03*
X123334800Y-54607600D03*
%TO.N,Net-(J1-GPIO16)*%
X130367600Y-108620400D03*
%TO.N,Net-(J1-GPIO20{slash}MOSI1)*%
X130833700Y-118057380D03*
X114794800Y-104447600D03*
X128284800Y-113562610D03*
X133164800Y-106027600D03*
X128814800Y-103057600D03*
%TO.N,Net-(J1-GPIO23)*%
X155249800Y-86317600D03*
X138542600Y-123607280D03*
X147024800Y-78237600D03*
%TO.N,Net-(J1-GCLK0{slash}GPIO4)*%
X155974800Y-88377600D03*
X142084800Y-67637600D03*
X135786700Y-124699480D03*
%TO.N,Net-(J1-GPIO22)*%
X138063800Y-69072600D03*
X142635800Y-70342600D03*
X142254800Y-78237599D03*
X113725280Y-87614600D03*
%TO.N,Net-(J1-GPIO17)*%
X135358700Y-74241500D03*
X123458800Y-104073800D03*
%TO.N,Net-(J1-SCLK0{slash}GPIO11)*%
X140994800Y-88927600D03*
%TO.N,Net-(J1-~{CE0}{slash}GPIO8)*%
X142834800Y-91217600D03*
%TO.N,Net-(J1-MOSI0{slash}GPIO10)*%
X141244800Y-83197600D03*
%TO.N,Net-(J1-GPIO25)*%
X141224800Y-86977600D03*
%TO.N,Net-(J1-GPIO24)*%
X141019100Y-125817080D03*
X146644800Y-81567600D03*
X150404800Y-92577600D03*
%TO.N,Net-(J1-GPIO26)*%
X149892915Y-110674790D03*
X134567500Y-121600680D03*
X141574800Y-106147600D03*
%TO.N,Net-(J1-3V3-Pad1)*%
X144314800Y-62787600D03*
%TO.N,Net-(J1-GPIO19{slash}MISO1)*%
X130376500Y-121854680D03*
X142134800Y-103287600D03*
X149874800Y-109667600D03*
%TO.N,Net-(J1-GPIO27)*%
X141144800Y-76647600D03*
%TO.N,Net-(J1-GPIO21{slash}SCLK1)*%
X146574800Y-102657600D03*
%TO.N,Net-(J1-GCLK1{slash}GPIO5)*%
X159104800Y-93287600D03*
X145414800Y-93687600D03*
X136129600Y-121054580D03*
%TO.N,Net-(SW12-B)*%
X170826000Y-120483080D03*
%TO.N,Net-(U6-L_+_OUT)*%
X119585300Y-77060900D03*
%TO.N,Net-(U6-R_+_OUT)*%
X128284800Y-84267600D03*
%TO.N,Net-(U13-VIN)*%
X158804800Y-78827600D03*
X166214800Y-93317600D03*
D28*
X162110000Y-117440000D03*
%TO.N,Net-(U10-RIGHT_IN)*%
X170130000Y-118370000D03*
D27*
%TO.N,Net-(U10-LEFT_IN)*%
X169574800Y-112467600D03*
%TO.N,Net-(U12-VCC)*%
X169873500Y-148765980D03*
%TO.N,Net-(U12-GND)*%
X170432300Y-141628580D03*
D28*
%TO.N,Net-(J1-PWM0{slash}GPIO12)*%
X153577224Y-124032776D03*
%TD*%
D29*
%TO.N,Net-(D1-K)*%
X147500000Y-158940000D02*
X149602300Y-158940000D01*
X166381000Y-127569680D02*
X166381000Y-126579080D01*
D30*
X161540000Y-137360000D02*
X162171291Y-136728709D01*
D29*
X113843700Y-124064480D02*
X115754610Y-125975390D01*
X125371003Y-130378077D02*
X125896001Y-129853079D01*
X134730000Y-159350000D02*
X137140000Y-159350000D01*
X115754610Y-125975390D02*
X116325390Y-125975390D01*
D30*
X156067080Y-139787080D02*
X156000000Y-139720000D01*
D29*
X163369302Y-130973280D02*
X164336300Y-130973280D01*
D30*
X137580000Y-158910000D02*
X137140000Y-159350000D01*
D29*
X149602300Y-158940000D02*
X149632300Y-158910000D01*
X126718900Y-139837880D02*
X128461400Y-139837880D01*
X169492500Y-123467580D02*
X171144800Y-123467580D01*
X116325390Y-125975390D02*
X120624780Y-130274780D01*
X128461400Y-139837880D02*
X128855100Y-139444180D01*
X166381000Y-126579080D02*
X169492500Y-123467580D01*
X163716600Y-125537680D02*
X165748600Y-127569680D01*
X113676000Y-139581280D02*
X113704000Y-139609280D01*
D30*
X138455000Y-158910000D02*
X137580000Y-158910000D01*
D29*
X125896001Y-129853079D02*
X125896001Y-127059079D01*
D30*
X157087200Y-139787080D02*
X156067080Y-139787080D01*
D29*
X163132400Y-124953480D02*
X158189500Y-124953480D01*
X113676000Y-137348680D02*
X113676000Y-139581280D01*
X125896001Y-127059079D02*
X128789000Y-124166080D01*
X165748600Y-127569680D02*
X166381000Y-127569680D01*
X163716600Y-125537680D02*
X163132400Y-124953480D01*
X120624780Y-130274780D02*
X121283300Y-130274780D01*
D30*
X162171291Y-136728709D02*
X162171291Y-132171291D01*
D29*
X132776800Y-157396800D02*
X134730000Y-159350000D01*
X162171291Y-132171291D02*
X163369302Y-130973280D01*
X132776800Y-156792380D02*
X132776800Y-157396800D01*
%TO.N,Net-(D1-A)*%
X131062300Y-120648180D02*
X130173300Y-120648180D01*
X172894800Y-123467580D02*
X172894800Y-122602680D01*
D30*
X131890000Y-116590000D02*
X135210000Y-119910000D01*
X115593700Y-122973700D02*
X115580000Y-122960000D01*
D29*
X130605100Y-139444180D02*
X131392500Y-139444180D01*
X150784412Y-120356080D02*
X146924600Y-120356080D01*
X152499900Y-129385780D02*
X152550700Y-129334980D01*
D30*
X133270000Y-145250000D02*
X120350000Y-145250000D01*
D29*
X166003800Y-77149800D02*
X164327000Y-77149800D01*
X150658400Y-131316180D02*
X152550700Y-129423880D01*
D30*
X115593700Y-124064480D02*
X115593700Y-122973700D01*
D29*
X166736600Y-119949680D02*
X166736600Y-120693400D01*
X131054800Y-55065900D02*
X130697800Y-54708900D01*
X146924600Y-120356080D02*
X145824999Y-121455681D01*
X161685400Y-74508200D02*
X161685400Y-68688200D01*
D30*
X119050000Y-116590000D02*
X131890000Y-116590000D01*
D29*
X161685400Y-68688200D02*
X151229800Y-58232600D01*
X151382300Y-158867700D02*
X150210000Y-160040000D01*
X155954300Y-141501580D02*
X154023810Y-139571090D01*
X134021400Y-135509382D02*
X133842499Y-135330481D01*
X134021400Y-136561280D02*
X134021400Y-135509382D01*
X164225600Y-77048400D02*
X161685400Y-74508200D01*
X145824999Y-127244779D02*
X146411301Y-127831081D01*
X150919801Y-127831081D02*
X152499900Y-129411180D01*
X154632512Y-124204180D02*
X150784412Y-120356080D01*
D30*
X133810000Y-149330000D02*
X133810000Y-145790000D01*
X120350000Y-145250000D02*
X119780000Y-144680000D01*
D29*
X157122700Y-141501580D02*
X155954300Y-141501580D01*
X172894800Y-122602680D02*
X172197600Y-121905480D01*
X131519500Y-156639980D02*
X131519500Y-158269500D01*
X131392500Y-139444180D02*
X132116400Y-138720280D01*
X130173300Y-120648180D02*
X129651499Y-121169981D01*
X168692400Y-121905480D02*
X172197600Y-121905480D01*
X164910000Y-123427280D02*
X164133100Y-124204180D01*
D30*
X119780000Y-144680000D02*
X119610000Y-144680000D01*
D29*
X133842499Y-121252679D02*
X134765599Y-120329579D01*
X154023810Y-139571090D02*
X149883700Y-135430980D01*
X158837200Y-139787080D02*
X157122700Y-141501580D01*
X164327000Y-77149800D02*
X164225600Y-77048400D01*
X151229800Y-58232600D02*
X136984800Y-58232600D01*
D30*
X133810000Y-145790000D02*
X133270000Y-145250000D01*
X135210000Y-119910000D02*
X135210000Y-120329579D01*
D29*
X146411301Y-127831081D02*
X150919801Y-127831081D01*
X133842499Y-121252679D02*
X131666799Y-121252679D01*
D30*
X115454000Y-139609280D02*
X115454000Y-140804000D01*
D29*
X164133100Y-124204180D02*
X154632512Y-124204180D01*
X131054800Y-59697600D02*
X131054800Y-55065900D01*
X131519500Y-158269500D02*
X133290000Y-160040000D01*
D30*
X131800000Y-151340000D02*
X133810000Y-149330000D01*
D29*
X129651499Y-121169981D02*
X129651499Y-123278579D01*
X152499900Y-129411180D02*
X152499900Y-129385780D01*
X150210000Y-160040000D02*
X139570000Y-160040000D01*
D30*
X115630000Y-120010000D02*
X119050000Y-116590000D01*
D29*
X166736600Y-119949680D02*
X168692400Y-121905480D01*
X164910000Y-122520000D02*
X164910000Y-123427280D01*
X166736600Y-120693400D02*
X164910000Y-122520000D01*
X134765599Y-120329579D02*
X135210000Y-120329579D01*
X133842499Y-135330481D02*
X133842499Y-121252679D01*
X131666799Y-121252679D02*
X131062300Y-120648180D01*
X135210000Y-120329579D02*
X146898099Y-120329579D01*
X129651499Y-123278579D02*
X130539000Y-124166080D01*
X133290000Y-160040000D02*
X139570000Y-160040000D01*
X145824999Y-121455681D02*
X145824999Y-127244779D01*
X146898099Y-120329579D02*
X146924600Y-120356080D01*
X139570000Y-160040000D02*
X140205000Y-159405000D01*
D30*
X115454000Y-140804000D02*
X115860000Y-141210000D01*
D29*
%TO.N,Net-(U10-GND)*%
X139734800Y-72707600D02*
X136044800Y-76397600D01*
X146234800Y-59717600D02*
X142004800Y-59717600D01*
X176492310Y-101024808D02*
X176492310Y-94395110D01*
X126557600Y-89456100D02*
X128043500Y-87970200D01*
X157329700Y-75333700D02*
X157329700Y-70812500D01*
X140854810Y-60867590D02*
X140534810Y-60867590D01*
X133154800Y-82858900D02*
X128043500Y-87970200D01*
X149946480Y-169623440D02*
X156674140Y-169623440D01*
X176034800Y-111397600D02*
X175628379Y-110991179D01*
X139734800Y-61667600D02*
X139734800Y-72707600D01*
X165703600Y-83707600D02*
X157329700Y-75333700D01*
X133154800Y-76397600D02*
X133154800Y-82858900D01*
X140534810Y-60867590D02*
X139734800Y-61667600D01*
X176492310Y-94395110D02*
X165804800Y-83707600D01*
X156674140Y-169623440D02*
X158024400Y-168273180D01*
X126557600Y-89481500D02*
X126557600Y-89456100D01*
X165804800Y-83707600D02*
X165703600Y-83707600D01*
X142004800Y-59717600D02*
X140854810Y-60867590D01*
X151614240Y-167955680D02*
X149946480Y-169623440D01*
X157329700Y-70812500D02*
X146234800Y-59717600D01*
X175628379Y-110991179D02*
X175628379Y-101888739D01*
X175628379Y-101888739D02*
X176492310Y-101024808D01*
X136044800Y-76397600D02*
X133154800Y-76397600D01*
X153490500Y-167955680D02*
X151614240Y-167955680D01*
%TO.N,Net-(U2-GND)*%
X161008900Y-146314880D02*
X155960000Y-146314880D01*
X169365500Y-134872180D02*
X163863320Y-129370000D01*
D30*
X120692470Y-127562470D02*
X121420450Y-127562470D01*
D29*
X171118100Y-136624780D02*
X169365500Y-134872180D01*
D30*
X155470000Y-134184000D02*
X155584000Y-134070000D01*
D29*
X137933000Y-153122080D02*
X136091500Y-151280580D01*
X155586000Y-134072080D02*
X155586000Y-130822080D01*
X171667300Y-98247600D02*
X168037300Y-101877600D01*
X134634800Y-100917600D02*
X134654800Y-100937600D01*
D30*
X153581500Y-153124000D02*
X155960000Y-150745500D01*
D29*
X128580310Y-127562470D02*
X130180920Y-129163080D01*
X156754400Y-128230080D02*
X156754400Y-129653680D01*
X135905000Y-155163600D02*
X135905000Y-156640200D01*
X134900000Y-145130000D02*
X134900000Y-147678000D01*
D30*
X170340000Y-132620000D02*
X169570000Y-132620000D01*
D29*
X135305900Y-101877600D02*
X139680000Y-101877600D01*
X117613000Y-148931080D02*
X120635600Y-151953680D01*
X112782287Y-127501467D02*
X112782287Y-131155793D01*
X142737000Y-101877600D02*
X139680000Y-101877600D01*
X169684000Y-132506000D02*
X169570000Y-132620000D01*
X115974700Y-143330380D02*
X119899000Y-139406080D01*
D30*
X172472920Y-132577080D02*
X171710000Y-133340000D01*
D29*
X133030800Y-155154080D02*
X133030800Y-151864780D01*
D30*
X155470000Y-137320000D02*
X155470000Y-134184000D01*
D29*
X144727500Y-156651580D02*
X144283000Y-156207080D01*
X143205200Y-101877600D02*
X142737000Y-101877600D01*
X156754400Y-129653680D02*
X157073100Y-129334980D01*
D30*
X169570000Y-129256000D02*
X169684000Y-129370000D01*
X119790000Y-123926000D02*
X119904000Y-124040000D01*
D29*
X156936000Y-137322080D02*
X155586000Y-135972080D01*
D30*
X144297400Y-99263200D02*
X144297400Y-101395000D01*
D29*
X133030800Y-155154080D02*
X133194080Y-155154080D01*
D30*
X150091220Y-156614280D02*
X148852920Y-156614280D01*
X119790000Y-120787600D02*
X119790000Y-123926000D01*
X147295000Y-156632600D02*
X148064800Y-157402400D01*
D29*
X155586000Y-130822080D02*
X156754400Y-129653680D01*
X146852200Y-74000200D02*
X146217200Y-73365200D01*
X121660000Y-142650281D02*
X122100000Y-142650281D01*
X134758000Y-150137580D02*
X134758000Y-147820000D01*
D30*
X112040000Y-128537600D02*
X112040000Y-131676000D01*
D29*
X117485710Y-122324290D02*
X119201420Y-124040000D01*
X127709500Y-155154080D02*
X133030800Y-155154080D01*
X157108120Y-129370000D02*
X163680000Y-129370000D01*
X144120800Y-101877600D02*
X143814800Y-101877600D01*
X173090000Y-101290000D02*
X173090000Y-98221404D01*
D30*
X140159500Y-155163600D02*
X140159500Y-155170500D01*
D29*
X117371700Y-122210280D02*
X113041000Y-122210280D01*
D30*
X169570000Y-126117600D02*
X169570000Y-129256000D01*
D29*
X155459000Y-122134080D02*
X158380000Y-122134080D01*
X155960000Y-146314880D02*
X154417600Y-146314880D01*
D30*
X149327000Y-152162200D02*
X149327000Y-153124000D01*
D29*
X115276200Y-143330380D02*
X115974700Y-143330380D01*
X121420450Y-127562470D02*
X122692920Y-126290000D01*
X122692920Y-126290000D02*
X122692920Y-124040000D01*
X125233000Y-148931080D02*
X125233000Y-152677580D01*
X153236500Y-147495980D02*
X153376240Y-147356240D01*
X151141000Y-150251880D02*
X151141000Y-149591480D01*
D30*
X171710000Y-133340000D02*
X171060000Y-133340000D01*
D29*
X126591900Y-154036480D02*
X127709500Y-155154080D01*
X133615000Y-151280580D02*
X133348300Y-151547280D01*
X113041000Y-122210280D02*
X112782287Y-122468993D01*
X112782287Y-131155793D02*
X112152000Y-131786080D01*
X128154800Y-100917600D02*
X134634800Y-100917600D01*
D30*
X119790000Y-139520080D02*
X119904000Y-139406080D01*
X138850000Y-156480000D02*
X137604800Y-156480000D01*
X122692920Y-139406080D02*
X122692920Y-141656080D01*
D29*
X114940920Y-128860000D02*
X114940920Y-131786080D01*
X146217200Y-73365200D02*
X146217200Y-67154900D01*
X112782287Y-127501467D02*
X113582387Y-127501467D01*
D30*
X119904000Y-124040000D02*
X119904000Y-126774000D01*
D29*
X133203600Y-155163600D02*
X135905000Y-155163600D01*
D30*
X136674800Y-157410000D02*
X136120000Y-157410000D01*
D29*
X123984859Y-144535141D02*
X134305141Y-144535141D01*
X145273600Y-152144180D02*
X145273600Y-148651680D01*
X144252710Y-156176790D02*
X144252710Y-155187290D01*
X146217200Y-67154900D02*
X145455200Y-66392900D01*
X133030800Y-151864780D02*
X133348300Y-151547280D01*
D30*
X119790000Y-136153680D02*
X119790000Y-139292080D01*
D29*
X167254800Y-101877600D02*
X144120800Y-101877600D01*
X163637800Y-143685980D02*
X161008900Y-146314880D01*
X158380000Y-122134080D02*
X159142000Y-122896080D01*
D30*
X155960000Y-150745500D02*
X155960000Y-146314880D01*
D29*
X145273600Y-153096680D02*
X145273600Y-152144180D01*
X127473690Y-127562470D02*
X128580310Y-127562470D01*
X117485710Y-122324290D02*
X117371700Y-122210280D01*
D30*
X148064800Y-150900000D02*
X149327000Y-152162200D01*
D29*
X113582387Y-127501467D02*
X114940920Y-128860000D01*
X168037300Y-101877600D02*
X167254800Y-101877600D01*
X136091500Y-151280580D02*
X133615000Y-151280580D01*
X135905000Y-156640200D02*
X136674800Y-157410000D01*
X166558800Y-143685980D02*
X171118100Y-139126680D01*
X125582785Y-154036480D02*
X126591900Y-154036480D01*
D30*
X121698719Y-142650281D02*
X121660000Y-142650281D01*
D29*
X125233000Y-152677580D02*
X126591900Y-154036480D01*
D30*
X144297400Y-101395000D02*
X143814800Y-101877600D01*
X137604800Y-156480000D02*
X136674800Y-157410000D01*
D29*
X133348300Y-151547280D02*
X134758000Y-150137580D01*
X119899000Y-139406080D02*
X119899000Y-141196780D01*
X169684000Y-129370000D02*
X169684000Y-132506000D01*
D30*
X171060000Y-133340000D02*
X170340000Y-132620000D01*
D29*
X134424800Y-54772485D02*
X134424800Y-56177600D01*
X127392000Y-127644160D02*
X127392000Y-131913080D01*
D30*
X172472920Y-129370000D02*
X172472920Y-132577080D01*
D29*
X157454082Y-137322080D02*
X156936000Y-137322080D01*
D30*
X148852920Y-156614280D02*
X148064800Y-157402400D01*
D29*
X144727500Y-156651580D02*
X144252710Y-156176790D01*
X158374920Y-134072080D02*
X158374920Y-136401242D01*
D30*
X127278000Y-135160000D02*
X127278000Y-132024000D01*
D29*
X133194080Y-155154080D02*
X133203600Y-155163600D01*
X157224300Y-127760180D02*
X156754400Y-128230080D01*
X163680000Y-129370000D02*
X169684000Y-129370000D01*
X134215700Y-54563385D02*
X134424800Y-54772485D01*
X144460800Y-155395380D02*
X144252710Y-155187290D01*
X121360000Y-127562470D02*
X121530090Y-127562470D01*
X124801200Y-153820580D02*
X125366885Y-153820580D01*
X134900000Y-147678000D02*
X134758000Y-147820000D01*
D30*
X112040000Y-131676000D02*
X112154000Y-131790000D01*
D29*
X123984859Y-144535141D02*
X122100000Y-142650281D01*
X171118100Y-139126680D02*
X171118100Y-136624780D01*
X155586000Y-135972080D02*
X155586000Y-134072080D01*
X157073100Y-129334980D02*
X157108120Y-129370000D01*
X147331000Y-155154080D02*
X145273600Y-153096680D01*
X112152000Y-140206180D02*
X115276200Y-143330380D01*
D30*
X119790000Y-139292080D02*
X119904000Y-139406080D01*
D29*
X134654800Y-100937600D02*
X134654800Y-101226500D01*
X121352501Y-142650281D02*
X121660000Y-142650281D01*
X151141000Y-150251880D02*
X149327000Y-152065880D01*
X127473690Y-127562470D02*
X127392000Y-127644160D01*
X112782287Y-122468993D02*
X112782287Y-127501467D01*
X145273600Y-148651680D02*
X145997500Y-147927780D01*
D30*
X122692920Y-141656080D02*
X121698719Y-142650281D01*
D29*
X119899000Y-141196780D02*
X121352501Y-142650281D01*
X136329200Y-99263200D02*
X138442700Y-99263200D01*
D30*
X127278000Y-132024000D02*
X127392000Y-131910000D01*
X151549500Y-155156000D02*
X150091220Y-156614280D01*
D29*
X158374920Y-136401242D02*
X157454082Y-137322080D01*
X144252710Y-155187290D02*
X142187500Y-153122080D01*
X134654800Y-101226500D02*
X135305900Y-101877600D01*
X125880700Y-131913080D02*
X127392000Y-131913080D01*
D30*
X140159500Y-155170500D02*
X138850000Y-156480000D01*
D29*
X134305141Y-144535141D02*
X134900000Y-145130000D01*
D30*
X147295000Y-155156000D02*
X147295000Y-156632600D01*
D29*
X134424800Y-56177600D02*
X134424800Y-62327600D01*
X121530090Y-127562470D02*
X125880700Y-131913080D01*
X163637800Y-143685980D02*
X166558800Y-143685980D01*
X134215700Y-53997700D02*
X134215700Y-54563385D01*
X119201420Y-124040000D02*
X119904000Y-124040000D01*
X121360000Y-127562470D02*
X121420450Y-127562470D01*
X134654800Y-100937600D02*
X136329200Y-99263200D01*
X144460800Y-155395380D02*
X144702100Y-155154080D01*
X163863320Y-129370000D02*
X163680000Y-129370000D01*
D30*
X136120000Y-157410000D02*
X135280000Y-158250000D01*
D29*
X173090000Y-98221404D02*
X172797998Y-97929402D01*
D30*
X119904000Y-126774000D02*
X120692470Y-127562470D01*
D29*
X143814800Y-101877600D02*
X143205200Y-101877600D01*
X144702100Y-155154080D02*
X147331000Y-155154080D01*
X112152000Y-131786080D02*
X112152000Y-140206180D01*
D30*
X119790000Y-142656080D02*
X119790000Y-139520080D01*
D29*
X172479800Y-98247600D02*
X171667300Y-98247600D01*
X153376240Y-147356240D02*
X154417600Y-146314880D01*
X120635600Y-151953680D02*
X120635600Y-153236380D01*
X130180920Y-129163080D02*
X130180920Y-131913080D01*
X151141000Y-149591480D02*
X153376240Y-147356240D01*
X125366885Y-153820580D02*
X125582785Y-154036480D01*
X149327000Y-152065880D02*
X149327000Y-153124000D01*
%TO.N,Net-(U6-L_IN)*%
X157794800Y-57507600D02*
X161524800Y-53777600D01*
X161524800Y-53777600D02*
X168714800Y-53777600D01*
X156034800Y-57507600D02*
X157794800Y-57507600D01*
%TO.N,Net-(U6-R_IN)*%
X123774800Y-55047600D02*
X123334800Y-54607600D01*
X123774800Y-56437600D02*
X123774800Y-55047600D01*
%TO.N,Net-(J1-GPIO16)*%
X126784898Y-108620400D02*
X130367600Y-108620400D01*
X121769599Y-106016799D02*
X121769599Y-107020099D01*
X121769599Y-107020099D02*
X122684100Y-107934600D01*
X120969600Y-105216800D02*
X121769599Y-106016799D01*
X123369900Y-108620400D02*
X126784898Y-108620400D01*
X122684100Y-107934600D02*
X123369900Y-108620400D01*
D30*
%TO.N,Net-(R1-Pad2)*%
X147497800Y-99263200D02*
X147497800Y-95801200D01*
D29*
X174824800Y-94937600D02*
X175454800Y-95567600D01*
D30*
X146697700Y-99263200D02*
X146697700Y-95923100D01*
X148297900Y-99263200D02*
X148297900Y-95737700D01*
X148533500Y-94937600D02*
X148361400Y-94937600D01*
D29*
X148666200Y-94937600D02*
X149098000Y-94937600D01*
X149758400Y-94937600D02*
X150037800Y-94937600D01*
D30*
X146697700Y-95923100D02*
X147683200Y-94937600D01*
D29*
X149098000Y-94937600D02*
X149349200Y-94937600D01*
X150037800Y-94937600D02*
X174824800Y-94937600D01*
X149349200Y-94937600D02*
X149758400Y-94937600D01*
D30*
X149098000Y-99263200D02*
X149098000Y-95877400D01*
X147683200Y-94937600D02*
X148666200Y-94937600D01*
D29*
X175454800Y-95567600D02*
X175454800Y-98247600D01*
D30*
X148297900Y-95737700D02*
X149098000Y-94937600D01*
X147497800Y-95801200D02*
X148361400Y-94937600D01*
D29*
X148533500Y-94937600D02*
X148666200Y-94937600D01*
D30*
X149098000Y-95877400D02*
X150037800Y-94937600D01*
D29*
%TO.N,Net-(J1-GPIO20{slash}MOSI1)*%
X124852000Y-124039080D02*
X124471000Y-124039080D01*
X124471000Y-120789080D02*
X124471000Y-124039080D01*
X122881780Y-120089380D02*
X123771300Y-120089380D01*
D30*
X124565200Y-124129200D02*
X124476000Y-124040000D01*
D29*
X124444800Y-112537600D02*
X122884800Y-112537600D01*
X123771300Y-120089380D02*
X124471000Y-120789080D01*
X124444800Y-112537600D02*
X127259790Y-112537600D01*
X130194800Y-103057600D02*
X133164800Y-106027600D01*
D30*
X124565200Y-127290000D02*
X124565200Y-124129200D01*
D29*
X121682080Y-124039080D02*
X121682080Y-121289080D01*
X128814800Y-103057600D02*
X130194800Y-103057600D01*
X122884800Y-112537600D02*
X114794800Y-104447600D01*
X121682080Y-121289080D02*
X122881780Y-120089380D01*
X130833700Y-118057380D02*
X124852000Y-124039080D01*
X127259790Y-112537600D02*
X128284800Y-113562610D01*
D30*
%TO.N,Net-(J1-GPIO23)*%
X151549500Y-152190500D02*
X151549500Y-153124000D01*
D29*
X138542600Y-126831670D02*
X147331000Y-135620070D01*
X147331000Y-153122080D02*
X149236000Y-155027080D01*
D30*
X152840000Y-157402400D02*
X152840000Y-155897500D01*
D29*
X151585500Y-153122080D02*
X153617500Y-155154080D01*
X147169800Y-78237600D02*
X147024800Y-78237600D01*
X147331000Y-152272080D02*
X147331000Y-153122080D01*
D30*
X152840000Y-155897500D02*
X153581500Y-155156000D01*
D29*
X147331000Y-135620070D02*
X147331000Y-152272080D01*
X151395000Y-153122080D02*
X151585500Y-153122080D01*
X155249800Y-86317600D02*
X147169800Y-78237600D01*
X149236000Y-155027080D02*
X149363000Y-155154080D01*
X149363000Y-155154080D02*
X151395000Y-153122080D01*
X138542600Y-123607280D02*
X138542600Y-126831670D01*
D30*
X152840000Y-150900000D02*
X151549500Y-152190500D01*
D29*
%TO.N,Net-(J1-GCLK0{slash}GPIO4)*%
X140866375Y-153832955D02*
X142187500Y-155154080D01*
X135901000Y-153122080D02*
X136976010Y-154197090D01*
X140155500Y-153122080D02*
X140866375Y-153832955D01*
X146744800Y-64144598D02*
X146744800Y-62317600D01*
X137450400Y-126375880D02*
X141112490Y-130037970D01*
D30*
X141450000Y-157410000D02*
X141450000Y-155905100D01*
D29*
X135786700Y-124699480D02*
X136352385Y-124699480D01*
D30*
X141450000Y-155905100D02*
X142191500Y-155163600D01*
D29*
X146744800Y-62317600D02*
X145744800Y-61317600D01*
X137450400Y-125797495D02*
X137450400Y-126020280D01*
X140866375Y-152411205D02*
X140155500Y-153122080D01*
X141112490Y-152165090D02*
X140866375Y-152411205D01*
X139965000Y-153122080D02*
X140155500Y-153122080D01*
X136352385Y-124699480D02*
X137450400Y-125797495D01*
X141112490Y-130037970D02*
X141112490Y-152165090D01*
X145744800Y-61317600D02*
X143824800Y-61317600D01*
X155974800Y-73374598D02*
X146744800Y-64144598D01*
X155974800Y-88377600D02*
X155974800Y-73374598D01*
X142084800Y-63057600D02*
X142084800Y-67637600D01*
X136976010Y-154197090D02*
X137933000Y-155154080D01*
X137933000Y-155154080D02*
X139965000Y-153122080D01*
X143824800Y-61317600D02*
X142084800Y-63057600D01*
X137450400Y-126020280D02*
X137450400Y-126375880D01*
%TO.N,Net-(J1-GPIO22)*%
X118505800Y-72293598D02*
X121726798Y-69072600D01*
X121726798Y-69072600D02*
X138063800Y-69072600D01*
X118505800Y-82834080D02*
X118505800Y-72293598D01*
X142635800Y-77856599D02*
X142254800Y-78237599D01*
X142635800Y-70342600D02*
X142635800Y-77856599D01*
X113725280Y-87614600D02*
X118505800Y-82834080D01*
%TO.N,Net-(J1-GPIO17)*%
X124678000Y-91500800D02*
X123458800Y-92720000D01*
X135358700Y-74241500D02*
X134237898Y-74241500D01*
X124678000Y-90262698D02*
X124678000Y-91500800D01*
X130799400Y-84141298D02*
X124678000Y-90262698D01*
X123458800Y-92720000D02*
X123458800Y-104073800D01*
X134237898Y-74241500D02*
X130799400Y-77679998D01*
X130799400Y-77679998D02*
X130799400Y-84141298D01*
D30*
%TO.N,Net-(J1-SCLK0{slash}GPIO11)*%
X140296900Y-89625500D02*
X140994800Y-88927600D01*
X140296900Y-99263200D02*
X140296900Y-89625500D01*
%TO.N,Net-(J1-~{CE0}{slash}GPIO8)*%
X141897100Y-99263200D02*
X141897100Y-92155300D01*
X141897100Y-92155300D02*
X142834800Y-91217600D01*
D29*
%TO.N,Net-(J1-MOSI0{slash}GPIO10)*%
X143754800Y-85707600D02*
X141244800Y-83197600D01*
X143754800Y-92303600D02*
X143754800Y-85707600D01*
D30*
X142697200Y-93361200D02*
X143754800Y-92303600D01*
X142697200Y-99263200D02*
X142697200Y-93361200D01*
%TO.N,Net-(J1-GPIO25)*%
X141363700Y-90258900D02*
X141681200Y-89941400D01*
D29*
X141719800Y-87472600D02*
X141719800Y-89902800D01*
D30*
X141097000Y-90525600D02*
X141249400Y-90373200D01*
X141097000Y-99263200D02*
X141097000Y-90525600D01*
X141249400Y-90373200D02*
X141363700Y-90258900D01*
D29*
X141224800Y-86977600D02*
X141719800Y-87472600D01*
X141719800Y-89902800D02*
X141363700Y-90258900D01*
%TO.N,Net-(J1-GPIO24)*%
X154710000Y-138710000D02*
X156872558Y-138710000D01*
X150404800Y-92577600D02*
X150404800Y-92011915D01*
D30*
X157367080Y-134070000D02*
X157367080Y-131820000D01*
D29*
X150574459Y-133745541D02*
X150574459Y-134574459D01*
D30*
X157367080Y-131820000D02*
X158369480Y-130817600D01*
D29*
X156872558Y-138710000D02*
X158262558Y-137320000D01*
X142643402Y-125817080D02*
X142644700Y-125815782D01*
X150574459Y-134574459D02*
X154710000Y-138710000D01*
X146454800Y-81757600D02*
X146644800Y-81567600D01*
D30*
X158369480Y-130817600D02*
X160245200Y-130817600D01*
X160245200Y-130817600D02*
X160245200Y-133980800D01*
X160156000Y-134070000D02*
X160156000Y-137230800D01*
D29*
X150404800Y-92011915D02*
X146454800Y-88061915D01*
X158262558Y-137320000D02*
X160245200Y-137320000D01*
X141019100Y-125817080D02*
X142643402Y-125817080D01*
D30*
X160156000Y-137230800D02*
X160245200Y-137320000D01*
D29*
X146454800Y-88061915D02*
X146454800Y-81757600D01*
D30*
X160245200Y-133980800D02*
X160156000Y-134070000D01*
D29*
X142644700Y-125815782D02*
X150574459Y-133745541D01*
%TO.N,Net-(J1-GPIO26)*%
X134567500Y-121600680D02*
X134567500Y-126337780D01*
X134567500Y-126337780D02*
X135824800Y-127595080D01*
X113935080Y-134536080D02*
X113935080Y-131786080D01*
X135302999Y-137286281D02*
X126546281Y-137286281D01*
X135824800Y-136764480D02*
X135302999Y-137286281D01*
X126060000Y-136800000D02*
X126060000Y-135240000D01*
X145819801Y-110392601D02*
X141574800Y-106147600D01*
X126546281Y-137286281D02*
X126060000Y-136800000D01*
X126060000Y-135240000D02*
X125211040Y-134391040D01*
D30*
X116815200Y-131879200D02*
X116726000Y-131790000D01*
D29*
X116724000Y-131786080D02*
X116724000Y-133257560D01*
X114690280Y-135291280D02*
X113935080Y-134536080D01*
X125211040Y-134391040D02*
X120678960Y-134391040D01*
X116724000Y-133257560D02*
X114690280Y-135291280D01*
X146101990Y-110674790D02*
X145819801Y-110392601D01*
D30*
X116815200Y-135040000D02*
X116815200Y-131879200D01*
D29*
X118074000Y-131786080D02*
X116724000Y-131786080D01*
D30*
X116815200Y-128537600D02*
X116815200Y-131700800D01*
X116815200Y-131700800D02*
X116726000Y-131790000D01*
D29*
X135824800Y-127595080D02*
X135824800Y-136764480D01*
X149892915Y-110674790D02*
X146101990Y-110674790D01*
X120678960Y-134391040D02*
X118074000Y-131786080D01*
%TO.N,Net-(J1-3V3-Pad1)*%
X144391100Y-62863900D02*
X144314800Y-62787600D01*
D30*
X145897600Y-99263200D02*
X145897600Y-95664100D01*
D29*
X144391100Y-94157600D02*
X144391100Y-62863900D01*
D30*
X145538150Y-95304650D02*
X144966650Y-94733150D01*
X144966650Y-94733150D02*
X144391100Y-94157600D01*
X145097500Y-99263200D02*
X145097500Y-94864000D01*
X145897600Y-95664100D02*
X145538150Y-95304650D01*
X145097500Y-94864000D02*
X144966650Y-94733150D01*
D29*
%TO.N,Net-(J1-GPIO19{slash}MISO1)*%
X131964000Y-135163080D02*
X131964000Y-131913080D01*
X149874800Y-109667600D02*
X143494800Y-103287600D01*
X131964000Y-123442180D02*
X131964000Y-131913080D01*
X129805000Y-135405580D02*
X131721500Y-135405580D01*
X129175080Y-134775660D02*
X129805000Y-135405580D01*
X131721500Y-135405580D02*
X131964000Y-135163080D01*
X130376500Y-121854680D02*
X131964000Y-123442180D01*
X143494800Y-103287600D02*
X142134800Y-103287600D01*
X129175080Y-131913080D02*
X129175080Y-134775660D01*
%TO.N,Net-(J1-GPIO27)*%
X138790400Y-79002000D02*
X141144800Y-76647600D01*
X138790400Y-91567000D02*
X138790400Y-79002000D01*
D30*
X139496800Y-99263200D02*
X139496800Y-92273400D01*
X139496800Y-92273400D02*
X138790400Y-91567000D01*
D29*
%TO.N,Net-(J1-GPIO21{slash}SCLK1)*%
X164675430Y-102657600D02*
X154827800Y-102657600D01*
X168366000Y-105216800D02*
X167234630Y-105216800D01*
X154827800Y-102657600D02*
X146574800Y-102657600D01*
X167234630Y-105216800D02*
X164675430Y-102657600D01*
%TO.N,Net-(J1-GCLK1{slash}GPIO5)*%
X123150069Y-135688091D02*
X121682080Y-137156080D01*
D30*
X124565200Y-142656080D02*
X124565200Y-139495280D01*
D29*
X136129600Y-121054580D02*
X135729601Y-121454579D01*
X124471000Y-139406080D02*
X124471000Y-136156080D01*
X158539115Y-93287600D02*
X157729115Y-92477600D01*
X126503000Y-141438080D02*
X124471000Y-139406080D01*
X136104200Y-143660580D02*
X132321010Y-143660580D01*
X135233410Y-125632090D02*
X136802700Y-127201380D01*
X121682080Y-137156080D02*
X121682080Y-139406080D01*
X157729115Y-92477600D02*
X156519115Y-93687600D01*
X124471000Y-136156080D02*
X124003011Y-135688091D01*
X159104800Y-93287600D02*
X158539115Y-93287600D01*
X136802700Y-127201380D02*
X136802700Y-142962080D01*
X135017510Y-125632090D02*
X135233410Y-125632090D01*
X124003011Y-135688091D02*
X123150069Y-135688091D01*
X136802700Y-142962080D02*
X136104200Y-143660580D01*
X150367802Y-93687600D02*
X145414800Y-93687600D01*
X135729601Y-123683577D02*
X135017510Y-124395668D01*
X130098510Y-141438080D02*
X126503000Y-141438080D01*
D30*
X124565200Y-139495280D02*
X124476000Y-139406080D01*
D29*
X135729601Y-121454579D02*
X135729601Y-123683577D01*
X135017510Y-124395668D02*
X135017510Y-125632090D01*
X156519115Y-93687600D02*
X150367802Y-93687600D01*
X132321010Y-143660580D02*
X130098510Y-141438080D01*
%TO.N,Net-(SW12-B)*%
X115073000Y-148931080D02*
X115073000Y-153642780D01*
X171613400Y-121270480D02*
X170826000Y-120483080D01*
X173164210Y-141500170D02*
X175893300Y-138771080D01*
X178966700Y-137729680D02*
X178966700Y-126871180D01*
X151253890Y-162075580D02*
X171829300Y-141500170D01*
X178966700Y-126871180D02*
X173366000Y-121270480D01*
X171829300Y-141500170D02*
X173164210Y-141500170D01*
X177925300Y-138771080D02*
X178966700Y-137729680D01*
X115073000Y-153642780D02*
X123505800Y-162075580D01*
X173366000Y-121270480D02*
X171613400Y-121270480D01*
X175893300Y-138771080D02*
X177925300Y-138771080D01*
X123505800Y-162075580D02*
X151253890Y-162075580D01*
%TO.N,Net-(U6-L_+_OUT)*%
X119585300Y-77060900D02*
X119585300Y-88186100D01*
X120793640Y-89394440D02*
X122004240Y-89394440D01*
X119585300Y-88186100D02*
X120793640Y-89394440D01*
%TO.N,Net-(U6-R_+_OUT)*%
X127884801Y-84667599D02*
X127884801Y-85520479D01*
X128284800Y-84267600D02*
X127884801Y-84667599D01*
X127884801Y-85520479D02*
X122754239Y-90651041D01*
X122754239Y-90651041D02*
X122004240Y-91401040D01*
%TO.N,Net-(U13-VIN)*%
X166214800Y-86237600D02*
X166214800Y-93317600D01*
X161286800Y-116616800D02*
X162110000Y-117440000D01*
X112332277Y-119037723D02*
X115660000Y-115710000D01*
X110285100Y-139837880D02*
X110285100Y-125441034D01*
X159390000Y-115290000D02*
X160716800Y-116616800D01*
X118222600Y-144435280D02*
X114882500Y-144435280D01*
X158804800Y-78827600D02*
X166214800Y-86237600D01*
X110285100Y-125441034D02*
X112332277Y-123393857D01*
X120893390Y-147106070D02*
X118222600Y-144435280D01*
X117340000Y-115290000D02*
X159390000Y-115290000D01*
X115660000Y-115710000D02*
X116920000Y-115710000D01*
X127773000Y-148931080D02*
X125947990Y-147106070D01*
X125947990Y-147106070D02*
X120893390Y-147106070D01*
X112332277Y-123393857D02*
X112332277Y-119037723D01*
X114882500Y-144435280D02*
X110285100Y-139837880D01*
X160716800Y-116616800D02*
X161286800Y-116616800D01*
X116920000Y-115710000D02*
X117340000Y-115290000D01*
%TO.N,Net-(U10-RIGHT_IN)*%
X124540200Y-107644400D02*
X130621600Y-107644400D01*
X122004240Y-96474900D02*
X122722200Y-97192860D01*
X174700000Y-117480000D02*
X173810000Y-118370000D01*
X170070000Y-111417600D02*
X171880000Y-111417600D01*
X122004240Y-95414240D02*
X122004240Y-96474900D01*
X122722200Y-97192860D02*
X122722200Y-105826400D01*
X174700000Y-114237600D02*
X174700000Y-117480000D01*
X122722200Y-105826400D02*
X124540200Y-107644400D01*
X130621600Y-107644400D02*
X134394800Y-111417600D01*
X173810000Y-118370000D02*
X170130000Y-118370000D01*
X134394800Y-111417600D02*
X170070000Y-111417600D01*
X171880000Y-111417600D02*
X174700000Y-114237600D01*
%TO.N,Net-(U10-LEFT_IN)*%
X116044800Y-99367080D02*
X122004240Y-93407640D01*
X168569115Y-112027600D02*
X123704800Y-112027600D01*
X116044800Y-104367600D02*
X116044800Y-99367080D01*
X169574800Y-112467600D02*
X169009115Y-112467600D01*
X123704800Y-112027600D02*
X116044800Y-104367600D01*
X169009115Y-112467600D02*
X168569115Y-112027600D01*
%TO.N,Net-(U12-VCC)*%
X169873500Y-148765980D02*
X168686010Y-149953470D01*
X113193400Y-153376080D02*
X122667600Y-162850280D01*
X113193400Y-147826180D02*
X113193400Y-153376080D01*
X162856790Y-151115480D02*
X164018800Y-149953470D01*
X168432010Y-149953470D02*
X165269790Y-149953470D01*
X120153000Y-148931080D02*
X116419200Y-145197280D01*
X122667600Y-162850280D02*
X151115600Y-162850280D01*
X116419200Y-145197280D02*
X115822300Y-145197280D01*
X164018800Y-149953470D02*
X165269790Y-149953470D01*
X151115600Y-162850280D02*
X162850400Y-151115480D01*
X168686010Y-149953470D02*
X168432010Y-149953470D01*
X115822300Y-145197280D02*
X113193400Y-147826180D01*
X162850400Y-151115480D02*
X162856790Y-151115480D01*
%TO.N,Net-(U12-GND)*%
X124369400Y-160907180D02*
X151179100Y-160907180D01*
X122693000Y-159230780D02*
X124369400Y-160907180D01*
X169302000Y-142758880D02*
X169302000Y-142784280D01*
X122693000Y-148931080D02*
X122693000Y-159230780D01*
X151179100Y-160907180D02*
X169302000Y-142784280D01*
X170432300Y-141628580D02*
X169302000Y-142758880D01*
%TO.N,Net-(J1-PWM0{slash}GPIO12)*%
X156074859Y-125137539D02*
X159819780Y-128882460D01*
X173167600Y-126117600D02*
X174345200Y-126117600D01*
X159819780Y-128882460D02*
X167067540Y-128882460D01*
X174345200Y-126117600D02*
X174345200Y-129280800D01*
X167067540Y-128882460D02*
X168057309Y-127892691D01*
X168057309Y-127892691D02*
X168057309Y-125642691D01*
X174345200Y-129280800D02*
X174256000Y-129370000D01*
D30*
X171467080Y-125932920D02*
X172225000Y-125175000D01*
X174345200Y-129459200D02*
X174256000Y-129370000D01*
D29*
X168057309Y-125642691D02*
X169050000Y-124650000D01*
X171700000Y-124650000D02*
X172225000Y-125175000D01*
D30*
X171467080Y-129370000D02*
X171467080Y-125932920D01*
D29*
X172225000Y-125175000D02*
X173167600Y-126117600D01*
D30*
X174345200Y-132620000D02*
X174345200Y-129459200D01*
D29*
X154681987Y-125137539D02*
X156074859Y-125137539D01*
X169050000Y-124650000D02*
X171700000Y-124650000D01*
X153577224Y-124032776D02*
X154681987Y-125137539D01*
%TD*%
M02*
