%TF.GenerationSoftware,KiCad,Pcbnew,8.0.5*%
%TF.CreationDate,2024-11-18T11:08:30+00:00*%
%TF.ProjectId,gbc_retrozero_combined,6762635f-7265-4747-926f-7a65726f5f63,rev?*%
%TF.SameCoordinates,Original*%
%TF.FileFunction,Soldermask,Bot*%
%TF.FilePolarity,Negative*%
%FSLAX46Y46*%
G04 Gerber Fmt 4.6, Leading zero omitted, Abs format (unit mm)*
G04 Created by KiCad (PCBNEW 8.0.5) date 2024-11-18 11:08:30*
%MOMM*%
%LPD*%
G01*
G04 APERTURE LIST*
G04 Aperture macros list*
%AMRoundRect*
0 Rectangle with rounded corners*
0 $1 Rounding radius*
0 $2 $3 $4 $5 $6 $7 $8 $9 X,Y pos of 4 corners*
0 Add a 4 corners polygon primitive as box body*
4,1,4,$2,$3,$4,$5,$6,$7,$8,$9,$2,$3,0*
0 Add four circle primitives for the rounded corners*
1,1,$1+$1,$2,$3*
1,1,$1+$1,$4,$5*
1,1,$1+$1,$6,$7*
1,1,$1+$1,$8,$9*
0 Add four rect primitives between the rounded corners*
20,1,$1+$1,$2,$3,$4,$5,0*
20,1,$1+$1,$4,$5,$6,$7,0*
20,1,$1+$1,$6,$7,$8,$9,0*
20,1,$1+$1,$8,$9,$2,$3,0*%
G04 Aperture macros list end*
%ADD10C,1.600000*%
%ADD11C,2.800000*%
%ADD12C,3.500000*%
%ADD13RoundRect,0.400000X-0.400000X0.400000X-0.400000X-0.400000X0.400000X-0.400000X0.400000X0.400000X0*%
%ADD14RoundRect,0.250000X-0.400000X-0.625000X0.400000X-0.625000X0.400000X0.625000X-0.400000X0.625000X0*%
%ADD15RoundRect,0.250000X0.400000X0.625000X-0.400000X0.625000X-0.400000X-0.625000X0.400000X-0.625000X0*%
%ADD16C,1.500000*%
%ADD17R,1.500000X0.600000*%
%ADD18R,1.500000X0.500000*%
%ADD19R,4.500000X1.000000*%
%ADD20RoundRect,0.250000X0.412500X0.650000X-0.412500X0.650000X-0.412500X-0.650000X0.412500X-0.650000X0*%
%ADD21RoundRect,0.250000X-0.412500X-0.650000X0.412500X-0.650000X0.412500X0.650000X-0.412500X0.650000X0*%
%ADD22C,1.800000*%
%ADD23RoundRect,0.400000X-0.400000X-0.400000X0.400000X-0.400000X0.400000X0.400000X-0.400000X0.400000X0*%
%ADD24RoundRect,0.250000X0.625000X-0.400000X0.625000X0.400000X-0.625000X0.400000X-0.625000X-0.400000X0*%
%ADD25C,1.900000*%
%ADD26R,1.000000X3.000000*%
%ADD27R,2.000000X3.000000*%
G04 APERTURE END LIST*
D10*
%TO.C,U3*%
X168366000Y-105216800D03*
%TD*%
D11*
%TO.C,U20*%
X133600000Y-141720000D03*
%TD*%
%TO.C,U9*%
X177360000Y-102720000D03*
%TD*%
%TO.C,U11*%
X111940000Y-102710000D03*
%TD*%
D10*
%TO.C,U2*%
X126049600Y-105216800D03*
X120969600Y-105216800D03*
%TD*%
D11*
%TO.C,U18*%
X177217300Y-140827460D03*
%TD*%
D10*
%TO.C,SW9*%
X155518000Y-122134000D03*
X155518000Y-126706000D03*
X147009000Y-122134000D03*
X147009000Y-126706000D03*
D12*
X151200000Y-124420000D03*
%TD*%
D11*
%TO.C,U5*%
X177357300Y-58517460D03*
%TD*%
%TO.C,U16*%
X131650000Y-147690000D03*
%TD*%
D10*
%TO.C,U12*%
X174077200Y-137450280D03*
X176617200Y-137450280D03*
%TD*%
D11*
%TO.C,U4*%
X111937300Y-59527460D03*
%TD*%
D12*
%TO.C,TP1*%
X166580000Y-138040000D03*
%TD*%
D11*
%TO.C,U19*%
X160967300Y-127157460D03*
%TD*%
%TO.C,U15*%
X158310000Y-148580000D03*
%TD*%
D10*
%TO.C,LS1*%
X158024400Y-170813180D03*
X158024400Y-168273180D03*
%TD*%
D11*
%TO.C,U14*%
X139010000Y-133850000D03*
%TD*%
D10*
%TO.C,SW10*%
X159142000Y-122896080D03*
X159142000Y-118324080D03*
X167651000Y-122896080D03*
X167651000Y-118324080D03*
D12*
X163460000Y-120610080D03*
%TD*%
D11*
%TO.C,U17*%
X111820000Y-145530000D03*
%TD*%
D13*
%TO.C,J1*%
X139409770Y-60250400D03*
X136869770Y-60250400D03*
X139409770Y-62790400D03*
X136869770Y-62790400D03*
X139409770Y-65330400D03*
X136869770Y-65330400D03*
X139409770Y-67870400D03*
X136869770Y-67870400D03*
X139409770Y-70410400D03*
X136869770Y-70410400D03*
X139409770Y-72950400D03*
X136869770Y-72950400D03*
X139409770Y-75490400D03*
X136869770Y-75490400D03*
X139409770Y-78030400D03*
X136869770Y-78030400D03*
X139409770Y-80570400D03*
X136869770Y-80570400D03*
X139409770Y-83110400D03*
X136869770Y-83110400D03*
X139409770Y-85650400D03*
X136869770Y-85650400D03*
X139409770Y-88190400D03*
X136869770Y-88190400D03*
X139409770Y-90730400D03*
X136869770Y-90730400D03*
X139409770Y-93270400D03*
X136869770Y-93270400D03*
X139409770Y-95810400D03*
X136869770Y-95810400D03*
X139409770Y-98350400D03*
X136869770Y-98350400D03*
X139409770Y-100890400D03*
X136869770Y-100890400D03*
X139409770Y-103430400D03*
X136869770Y-103430400D03*
X139409770Y-105970400D03*
X136869770Y-105970400D03*
X139409770Y-108510400D03*
X136869770Y-108510400D03*
%TD*%
D14*
%TO.C,R3*%
X166862300Y-70817600D03*
X169962300Y-70817600D03*
%TD*%
D15*
%TO.C,R8*%
X142282680Y-160650640D03*
X139182680Y-160650640D03*
%TD*%
D16*
%TO.C,U7*%
X114454800Y-72909600D03*
X110657500Y-72909600D03*
D17*
X114703720Y-74469160D03*
X114713880Y-79975880D03*
D16*
X114454800Y-81545600D03*
X110657500Y-81545600D03*
D18*
X114703720Y-75698520D03*
X114713880Y-78746520D03*
X114708800Y-76719600D03*
X114713880Y-77735600D03*
%TD*%
D19*
%TO.C,SW12*%
X169715600Y-82246880D03*
X169715600Y-79706880D03*
X169715600Y-77166880D03*
%TD*%
D20*
%TO.C,C1*%
X176039800Y-66337600D03*
X172914800Y-66337600D03*
%TD*%
D21*
%TO.C,C3*%
X172429800Y-53357600D03*
X175554800Y-53357600D03*
%TD*%
D16*
%TO.C,U8*%
X122004240Y-87387840D03*
X122004240Y-89394440D03*
X122004240Y-91401040D03*
X122004240Y-93407640D03*
X122004240Y-95414240D03*
D22*
X110879040Y-96569940D03*
X110891740Y-86232140D03*
%TD*%
D14*
%TO.C,R6*%
X110912300Y-69267600D03*
X114012300Y-69267600D03*
%TD*%
D20*
%TO.C,C4*%
X169744800Y-57837600D03*
X166619800Y-57837600D03*
%TD*%
D23*
%TO.C,U6*%
X117054800Y-53167600D03*
X119594800Y-53167600D03*
X122134800Y-53167600D03*
X129754800Y-53167600D03*
X132294800Y-53167600D03*
X117054800Y-72014400D03*
X119556700Y-71976300D03*
X129754800Y-71976300D03*
X132294800Y-71976300D03*
%TD*%
D24*
%TO.C,R7*%
X117684800Y-80680100D03*
X117684800Y-77580100D03*
%TD*%
D15*
%TO.C,R5*%
X169537300Y-62237600D03*
X166437300Y-62237600D03*
%TD*%
D20*
%TO.C,C2*%
X169814800Y-66337600D03*
X166689800Y-66337600D03*
%TD*%
D15*
%TO.C,R2*%
X175947300Y-70967600D03*
X172847300Y-70967600D03*
%TD*%
D25*
%TO.C,U10*%
X149946480Y-169623440D03*
X155026480Y-164543440D03*
X152486480Y-164543440D03*
X147406480Y-164543440D03*
X144866480Y-164543440D03*
%TD*%
D15*
%TO.C,R4*%
X175977300Y-63427600D03*
X172877300Y-63427600D03*
%TD*%
D26*
%TO.C,SW11*%
X146939840Y-150660820D03*
X143929940Y-150660820D03*
X142228140Y-150660820D03*
D27*
X149073440Y-153040800D03*
X140107240Y-153010320D03*
%TD*%
M02*
